<?xml version="1.0" encoding="UTF-8" standalone="no"?>
<svg
   xmlns:dc="http://purl.org/dc/elements/1.1/"
   xmlns:cc="http://creativecommons.org/ns#"
   xmlns:rdf="http://www.w3.org/1999/02/22-rdf-syntax-ns#"
   xmlns:svg="http://www.w3.org/2000/svg"
   xmlns="http://www.w3.org/2000/svg"
   xmlns:sodipodi="http://sodipodi.sourceforge.net/DTD/sodipodi-0.dtd"
   xmlns:inkscape="http://www.inkscape.org/namespaces/inkscape"
   height="450px"
   version="1.1"
   width="450px"
   id="svg2"
   inkscape:version="0.91 r13725"
   sodipodi:docname="map.svg">
  <metadata
     id="metadata533">
    <rdf:RDF>
      <cc:Work
         rdf:about="">
        <dc:format>image/svg+xml</dc:format>
        <dc:type
           rdf:resource="http://purl.org/dc/dcmitype/StillImage" />
      </cc:Work>
    </rdf:RDF>
  </metadata>
  <sodipodi:namedview
     pagecolor="#ffffff"
     bordercolor="#666666"
     borderopacity="1"
     objecttolerance="10"
     gridtolerance="10"
     guidetolerance="10"
     inkscape:pageopacity="0"
     inkscape:pageshadow="2"
     inkscape:window-width="1600"
     inkscape:window-height="837"
     id="namedview531"
     showgrid="false"
     inkscape:zoom="1.0488889"
     inkscape:cx="225"
     inkscape:cy="225"
     inkscape:window-x="-8"
     inkscape:window-y="-8"
     inkscape:window-maximized="1"
     inkscape:current-layer="svg2" />
  <defs
     id="defs4" />
  <g
     fill="none"
     id="roads"
     stroke="black"
     stroke-width="2"
     style="stroke:#00274b;stroke-opacity:1">
    <polyline
       points="311,294 304,277 300,270 297,262 292,247"
       stroke="orange"
       id="polyline7"
       style="stroke:#00274b;stroke-opacity:1" />
    <polyline
       points="270,246 274,264 270,278"
       stroke="orange"
       id="polyline9"
       style="stroke:#00274b;stroke-opacity:1" />
    <polyline
       points="239,247 244,260 247,270 250,274 251,275 261,279"
       stroke="orange"
       id="polyline11"
       style="stroke:#00274b;stroke-opacity:1" />
    <polyline
       points="269,299 268,298 267,287"
       stroke="orange"
       id="polyline13"
       style="stroke:#00274b;stroke-opacity:1" />
    <polyline
       points="193,253 201,275 206,282"
       stroke="black"
       id="polyline15"
       style="stroke:#00274b;stroke-opacity:1" />
    <polyline
       points="206,282 207,281 209,280 231,278 249,276 251,275"
       stroke="orange"
       id="polyline17"
       style="stroke:#00274b;stroke-opacity:1" />
    <polyline
       points="185,288 178,267"
       stroke="green"
       id="polyline19"
       style="stroke:#00274b;stroke-opacity:1" />
    <polyline
       points="206,282 201,284 185,288 183,289 160,292 140,294"
       stroke="orange"
       id="polyline21"
       style="stroke:#00274b;stroke-opacity:1" />
    <polyline
       points="269,299 282,298 292,298 307,295 311,294 320,292"
       stroke="orange"
       id="polyline23"
       style="stroke:#00274b;stroke-opacity:1" />
    <polyline
       points="101,232 105,231 111,229"
       stroke="black"
       id="polyline25"
       style="stroke:#00274b;stroke-opacity:1" />
    <polyline
       points="185,208 211,204 228,202 251,200 253,199"
       stroke="black"
       id="polyline27"
       style="stroke:#00274b;stroke-opacity:1" />
    <polyline
       points="53,315 58,315 72,315 74,315 77,315 88,316 111,317 116,318 132,319 150,320 153,320"
       stroke="orange"
       id="polyline29"
       style="stroke:#00274b;stroke-opacity:1" />
    <polyline
       points="24,320 24,321 24,322 26,337 26,338 37,339 35,351"
       stroke="green"
       id="polyline31"
       style="stroke:#00274b;stroke-opacity:1" />
    <polyline
       points="56,346 56,340 56,329 55,328"
       stroke="black"
       id="polyline33"
       style="stroke:#00274b;stroke-opacity:1" />
    <polyline
       points="53,315 48,315 32,315 33,319 29,320 27,320 24,320"
       stroke="black"
       id="polyline35"
       style="stroke:#00274b;stroke-opacity:1" />
    <polyline
       points="28,257 56,252 58,252 59,253 63,261"
       stroke="black"
       id="polyline37"
       style="stroke:#00274b;stroke-opacity:1" />
    <polyline
       points="3,218 35,211 61,205 81,201"
       stroke="black"
       id="polyline39"
       style="stroke:#00274b;stroke-opacity:1" />
    <polyline
       points="252,146 256,151 260,155 264,160 268,164 268,165"
       stroke="black"
       id="polyline41"
       style="stroke:#00274b;stroke-opacity:1" />
    <polyline
       points="286,213 284,217 282,219 280,220 276,221 272,221 264,220 260,216 253,202 253,199 254,195 256,193 260,191 267,190 273,191 276,192 279,194"
       stroke="black"
       id="polyline43"
       style="stroke:#00274b;stroke-opacity:1" />
    <polyline
       points="260,216 261,224 266,243"
       stroke="black"
       id="polyline45"
       style="stroke:#00274b;stroke-opacity:1" />
    <polyline
       points="198,253 195,245"
       stroke="black"
       id="polyline47"
       style="stroke:#00274b;stroke-opacity:1" />
    <polyline
       points="81,201 83,201 85,201"
       stroke="black"
       id="polyline49"
       style="stroke:#00274b;stroke-opacity:1" />
    <polyline
       points="333,234 342,233"
       stroke="blue"
       id="polyline51"
       style="stroke:#00274b;stroke-opacity:1" />
    <polyline
       points="125,264 133,262 148,259 149,259 157,258 162,257 165,257 169,256 173,256 174,256 181,255 182,254 193,253 198,253 239,247 266,243 269,243 289,239 296,238 299,238 318,235"
       stroke="blue"
       id="polyline53"
       style="stroke:#00274b;stroke-opacity:1" />
    <polyline
       points="125,264 125,266 125,268 138,290 140,294 146,305 151,316 153,320 155,327 156,335"
       stroke="blue"
       id="polyline55"
       style="stroke:#00274b;stroke-opacity:1" />
    <polyline
       points="313,0 333,23 338,30 344,37 345,39 345,40 348,47 349,52 353,64 355,70 361,98 361,100 361,121 361,141 360,144"
       stroke="orange"
       id="polyline57"
       style="stroke:#00274b;stroke-opacity:1" />
    <polyline
       points="252,146 255,145 258,144 264,143 277,142 288,142 306,142 313,142 321,142 331,142 332,142 360,144"
       stroke="orange"
       id="polyline59"
       style="stroke:#00274b;stroke-opacity:1" />
    <polyline
       points="116,318 115,321"
       stroke="green"
       id="polyline61"
       style="stroke:#00274b;stroke-opacity:1" />
    <polyline
       points="114,327 114,327 115,328 115,333 116,334 135,336 156,335"
       stroke="orange"
       id="polyline63"
       style="stroke:#00274b;stroke-opacity:1" />
    <polyline
       points="302,376 304,374 308,372 315,371 314,347 313,341 312,332"
       stroke="green"
       id="polyline65"
       style="stroke:#00274b;stroke-opacity:1" />
    <polyline
       points="312,332 312,330 310,326 309,320 310,305 310,304 307,297 307,295"
       stroke="green"
       id="polyline67"
       style="stroke:#00274b;stroke-opacity:1" />
    <polyline
       points="-17,169 -1,167 18,167 27,166 57,159"
       stroke="green"
       id="polyline69"
       style="stroke:#00274b;stroke-opacity:1" />
    <polyline
       points="43,294 40,286 38,280"
       stroke="black"
       id="polyline71"
       style="stroke:#00274b;stroke-opacity:1" />
    <polyline
       points="328,273 304,277"
       stroke="orange"
       id="polyline73"
       style="stroke:#00274b;stroke-opacity:1" />
    <polyline
       points="386,233 385,237 385,238 382,267 379,268 381,280 381,284"
       stroke="black"
       id="polyline75"
       style="stroke:#00274b;stroke-opacity:1" />
    <polyline
       points="55,328 57,328 65,328 69,328"
       stroke="orange"
       id="polyline77"
       style="stroke:#00274b;stroke-opacity:1" />
    <polyline
       points="165,257 164,255"
       stroke="green"
       id="polyline79"
       style="stroke:#00274b;stroke-opacity:1" />
    <polyline
       points="174,256 173,254"
       stroke="green"
       id="polyline81"
       style="stroke:#00274b;stroke-opacity:1" />
    <polyline
       points="181,255 180,253"
       stroke="green"
       id="polyline83"
       style="stroke:#00274b;stroke-opacity:1" />
    <polyline
       points="157,258 157,257"
       stroke="green"
       id="polyline85"
       style="stroke:#00274b;stroke-opacity:1" />
    <polyline
       points="150,236 158,235"
       stroke="green"
       id="polyline87"
       style="stroke:#00274b;stroke-opacity:1" />
    <polyline
       points="144,227 147,226 155,225"
       stroke="green"
       id="polyline89"
       style="stroke:#00274b;stroke-opacity:1" />
    <polyline
       points="146,224 154,223"
       stroke="green"
       id="polyline91"
       style="stroke:#00274b;stroke-opacity:1" />
    <polyline
       points="111,249 115,248 134,245 133,243"
       stroke="green"
       id="polyline93"
       style="stroke:#00274b;stroke-opacity:1" />
    <polyline
       points="306,142 306,143 306,147 305,150 305,151 305,152"
       stroke="black"
       id="polyline95"
       style="stroke:#00274b;stroke-opacity:1" />
    <polyline
       points="327,177 328,177"
       stroke="black"
       id="polyline97"
       style="stroke:#00274b;stroke-opacity:1" />
    <polyline
       points="283,165 285,158 293,158 299,157 309,158 310,152 310,151"
       stroke="green"
       id="polyline99"
       style="stroke:#00274b;stroke-opacity:1" />
    <polyline
       points="181,209 185,208"
       stroke="black"
       id="polyline101"
       style="stroke:#00274b;stroke-opacity:1" />
    <polyline
       points="286,213 289,220 295,229 299,238"
       stroke="black"
       id="polyline103"
       style="stroke:#00274b;stroke-opacity:1" />
    <polyline
       points="268,165 271,170 277,186 277,189 279,194 280,197 286,213"
       stroke="black"
       id="polyline105"
       style="stroke:#00274b;stroke-opacity:1" />
    <polyline
       points="268,165 272,165 283,165 303,166 304,166 305,167 305,167 305,174 305,174 327,177"
       stroke="black"
       id="polyline107"
       style="stroke:#00274b;stroke-opacity:1" />
    <polyline
       points="140,173 162,168"
       stroke="black"
       id="polyline109"
       style="stroke:#00274b;stroke-opacity:1" />
    <polyline
       points="418,239 415,239"
       stroke="blue"
       id="polyline111"
       style="stroke:#00274b;stroke-opacity:1" />
    <polyline
       points="405,239 406,236 407,234 408,230 410,225 412,217 411,212 408,195 407,194 405,194 380,193 368,193 339,189 338,189 333,189 331,188 329,179"
       stroke="black"
       id="polyline113"
       style="stroke:#00274b;stroke-opacity:1" />
    <polyline
       points="158,233 163,233"
       stroke="green"
       id="polyline115"
       style="stroke:#00274b;stroke-opacity:1" />
    <polyline
       points="61,253 59,253"
       stroke="green"
       id="polyline117"
       style="stroke:#00274b;stroke-opacity:1" />
    <polyline
       points="155,225 162,224 169,223"
       stroke="green"
       id="polyline119"
       style="stroke:#00274b;stroke-opacity:1" />
    <polyline
       points="155,249 161,248"
       stroke="green"
       id="polyline121"
       style="stroke:#00274b;stroke-opacity:1" />
    <polyline
       points="162,248 170,247 171,247 177,246"
       stroke="green"
       id="polyline123"
       style="stroke:#00274b;stroke-opacity:1" />
    <polyline
       points="101,232 99,233 73,240 78,249 88,271 89,274"
       stroke="green"
       id="polyline125"
       style="stroke:#00274b;stroke-opacity:1" />
    <polyline
       points="78,249 61,253"
       stroke="green"
       id="polyline127"
       style="stroke:#00274b;stroke-opacity:1" />
    <polyline
       points="222,160 204,167 168,172 163,172"
       stroke="black"
       id="polyline129"
       style="stroke:#00274b;stroke-opacity:1" />
    <polyline
       points="222,160 232,157 234,156 245,150 252,146"
       stroke="black"
       id="polyline131"
       style="stroke:#00274b;stroke-opacity:1" />
    <polyline
       points="163,172 163,171 162,168"
       stroke="black"
       id="polyline133"
       style="stroke:#00274b;stroke-opacity:1" />
    <polyline
       points="43,190 36,178"
       stroke="green"
       id="polyline135"
       style="stroke:#00274b;stroke-opacity:1" />
    <polyline
       points="0,275 5,276 23,280 23,280 26,281 38,280"
       stroke="black"
       id="polyline137"
       style="stroke:#00274b;stroke-opacity:1" />
    <polyline
       points="475,249 456,246 437,242 418,239"
       stroke="blue"
       id="polyline139"
       style="stroke:#00274b;stroke-opacity:1" />
    <polyline
       points="292,247 290,242"
       stroke="green"
       id="polyline141"
       style="stroke:#00274b;stroke-opacity:1" />
    <polyline
       points="320,292 341,289 364,285 381,284 387,283 401,281 412,280 438,279 439,278 440,278"
       stroke="orange"
       id="polyline143"
       style="stroke:#00274b;stroke-opacity:1" />
    <polyline
       points="171,187 164,174 163,172"
       stroke="black"
       id="polyline145"
       style="stroke:#00274b;stroke-opacity:1" />
    <polyline
       points="267,287 267,286 268,284"
       stroke="orange"
       id="polyline147"
       style="stroke:#00274b;stroke-opacity:1" />
    <polyline
       points="268,284 266,281 261,279"
       stroke="orange"
       id="polyline149"
       style="stroke:#00274b;stroke-opacity:1" />
    <polyline
       points="270,278 266,281"
       stroke="green"
       id="polyline151"
       style="stroke:#00274b;stroke-opacity:1" />
    <polyline
       points="38,280 43,280 84,275 89,274 96,272 108,269 111,268 117,264 122,263 125,264"
       stroke="black"
       id="polyline153"
       style="stroke:#00274b;stroke-opacity:1" />
    <polyline
       points="195,245 194,234 189,224 184,214 181,209"
       stroke="black"
       id="polyline155"
       style="stroke:#00274b;stroke-opacity:1" />
    <polyline
       points="360,144 377,146 404,148 413,149 436,151 452,153 460,154"
       stroke="orange"
       id="polyline157"
       style="stroke:#00274b;stroke-opacity:1" />
    <polyline
       points="111,229 138,222 144,220 152,217 159,215 165,213 180,210 181,209"
       stroke="black"
       id="polyline159"
       style="stroke:#00274b;stroke-opacity:1" />
    <polyline
       points="327,177 337,178"
       stroke="black"
       id="polyline161"
       style="stroke:#00274b;stroke-opacity:1" />
    <polyline
       points="91,176 100,175 137,173 138,173"
       stroke="black"
       id="polyline163"
       style="stroke:#00274b;stroke-opacity:1" />
    <polyline
       points="97,223 95,224 81,226 74,228 62,231"
       stroke="green"
       id="polyline165"
       style="stroke:#00274b;stroke-opacity:1" />
    <polyline
       points="81,226 79,222"
       stroke="green"
       id="polyline167"
       style="stroke:#00274b;stroke-opacity:1" />
    <polyline
       points="138,290 125,292 120,293 101,296 98,296 97,293 96,291"
       stroke="black"
       id="polyline169"
       style="stroke:#00274b;stroke-opacity:1" />
    <polyline
       points="166,232 172,231"
       stroke="green"
       id="polyline171"
       style="stroke:#00274b;stroke-opacity:1" />
    <polyline
       points="164,231 162,224 160,217"
       stroke="green"
       id="polyline173"
       style="stroke:#00274b;stroke-opacity:1" />
    <polyline
       points="165,233 165,233 165,233 164,233 164,233 164,233 163,233 163,232 164,232 164,232 164,231 165,231 166,232 166,232 166,232 166,232 166,233 166,233 165,233"
       stroke="green"
       id="polyline175"
       style="stroke:#00274b;stroke-opacity:1" />
    <polyline
       points="337,306 339,306"
       stroke="green"
       id="polyline177"
       style="stroke:#00274b;stroke-opacity:1" />
    <polyline
       points="361,291 363,291"
       stroke="green"
       id="polyline179"
       style="stroke:#00274b;stroke-opacity:1" />
    <polyline
       points="362,296 362,297 363,299"
       stroke="green"
       id="polyline181"
       style="stroke:#00274b;stroke-opacity:1" />
    <polyline
       points="312,332 369,319 431,308 436,308 440,308 470,319"
       stroke="green"
       id="polyline183"
       style="stroke:#00274b;stroke-opacity:1" />
    <polyline
       points="364,285 364,283"
       stroke="black"
       id="polyline185"
       style="stroke:#00274b;stroke-opacity:1" />
    <polyline
       points="183,44 184,46 185,47 196,65 214,92 222,104 223,105 224,106 231,116 236,124 238,127 239,128 240,131 241,132 242,134 243,136 247,141 248,143 252,146"
       stroke="black"
       id="polyline187"
       style="stroke:#00274b;stroke-opacity:1" />
    <polyline
       points="85,201 88,201 93,200"
       stroke="black"
       id="polyline189"
       style="stroke:#00274b;stroke-opacity:1" />
    <polyline
       points="93,200 108,198 122,195 147,191 171,187"
       stroke="black"
       id="polyline191"
       style="stroke:#00274b;stroke-opacity:1" />
    <polyline
       points="321,159 309,158"
       stroke="green"
       id="polyline193"
       style="stroke:#00274b;stroke-opacity:1" />
    <polyline
       points="387,233 387,232 387,232"
       stroke="green"
       id="polyline195"
       style="stroke:#00274b;stroke-opacity:1" />
    <polyline
       points="380,195 380,193"
       stroke="green"
       id="polyline197"
       style="stroke:#00274b;stroke-opacity:1" />
    <polyline
       points="339,189 338,192"
       stroke="black"
       id="polyline199"
       style="stroke:#00274b;stroke-opacity:1" />
    <polyline
       points="115,321 115,323 114,327"
       stroke="black"
       id="polyline201"
       style="stroke:#00274b;stroke-opacity:1" />
    <polyline
       points="170,247 165,233"
       stroke="green"
       id="polyline203"
       style="stroke:#00274b;stroke-opacity:1" />
    <polyline
       points="367,317 366,314 366,314"
       stroke="green"
       id="polyline205"
       style="stroke:#00274b;stroke-opacity:1" />
    <polyline
       points="343,294 343,293"
       stroke="green"
       id="polyline207"
       style="stroke:#00274b;stroke-opacity:1" />
    <polyline
       points="363,299 364,301"
       stroke="green"
       id="polyline209"
       style="stroke:#00274b;stroke-opacity:1" />
    <polyline
       points="342,290 341,289"
       stroke="green"
       id="polyline211"
       style="stroke:#00274b;stroke-opacity:1" />
    <polyline
       points="322,309 326,308"
       stroke="green"
       id="polyline213"
       style="stroke:#00274b;stroke-opacity:1" />
    <polyline
       points="363,291 365,291"
       stroke="green"
       id="polyline215"
       style="stroke:#00274b;stroke-opacity:1" />
    <polyline
       points="343,293 342,290"
       stroke="green"
       id="polyline217"
       style="stroke:#00274b;stroke-opacity:1" />
    <polyline
       points="364,301 363,303"
       stroke="green"
       id="polyline219"
       style="stroke:#00274b;stroke-opacity:1" />
    <polyline
       points="34,269 28,257 22,248 18,241 3,218"
       stroke="black"
       id="polyline221"
       style="stroke:#00274b;stroke-opacity:1" />
    <polyline
       points="175,202 177,201"
       stroke="green"
       id="polyline223"
       style="stroke:#00274b;stroke-opacity:1" />
    <polyline
       points="164,335 162,335 156,335"
       stroke="green"
       id="polyline225"
       style="stroke:#00274b;stroke-opacity:1" />
    <polyline
       points="178,267 174,259"
       stroke="green"
       id="polyline227"
       style="stroke:#00274b;stroke-opacity:1" />
    <polyline
       points="174,259 173,256"
       stroke="green"
       id="polyline229"
       style="stroke:#00274b;stroke-opacity:1" />
    <polyline
       points="38,280 34,269"
       stroke="black"
       id="polyline231"
       style="stroke:#00274b;stroke-opacity:1" />
    <polyline
       points="181,209 181,209 177,201 176,198 171,187"
       stroke="black"
       id="polyline233"
       style="stroke:#00274b;stroke-opacity:1" />
    <polyline
       points="210,169 211,171"
       stroke="black"
       id="polyline235"
       style="stroke:#00274b;stroke-opacity:1" />
    <polyline
       points="245,155 246,157"
       stroke="black"
       id="polyline237"
       style="stroke:#00274b;stroke-opacity:1" />
    <polyline
       points="270,179 265,179"
       stroke="green"
       id="polyline239"
       style="stroke:#00274b;stroke-opacity:1" />
    <polyline
       points="258,187 259,190"
       stroke="green"
       id="polyline241"
       style="stroke:#00274b;stroke-opacity:1" />
    <polyline
       points="252,173 254,176"
       stroke="green"
       id="polyline243"
       style="stroke:#00274b;stroke-opacity:1" />
    <polyline
       points="246,157 249,165"
       stroke="green"
       id="polyline245"
       style="stroke:#00274b;stroke-opacity:1" />
    <polyline
       points="239,168 250,167 263,165 268,164"
       stroke="green"
       id="polyline247"
       style="stroke:#00274b;stroke-opacity:1" />
    <polyline
       points="295,236 296,238 297,241"
       stroke="green"
       id="polyline249"
       style="stroke:#00274b;stroke-opacity:1" />
    <polyline
       points="180,253 178,246 177,246 172,231 169,223 166,215"
       stroke="green"
       id="polyline251"
       style="stroke:#00274b;stroke-opacity:1" />
    <polyline
       points="121,268 125,268 128,267 129,267"
       stroke="green"
       id="polyline253"
       style="stroke:#00274b;stroke-opacity:1" />
    <polyline
       points="73,185 72,183 72,182"
       stroke="green"
       id="polyline255"
       style="stroke:#00274b;stroke-opacity:1" />
    <polyline
       points="79,176 81,178 82,179"
       stroke="green"
       id="polyline257"
       style="stroke:#00274b;stroke-opacity:1" />
    <polyline
       points="133,263 133,262 132,260"
       stroke="green"
       id="polyline259"
       style="stroke:#00274b;stroke-opacity:1" />
    <polyline
       points="350,236 350,233 350,231"
       stroke="green"
       id="polyline261"
       style="stroke:#00274b;stroke-opacity:1" />
    <polyline
       points="325,237 324,234 324,232"
       stroke="green"
       id="polyline263"
       style="stroke:#00274b;stroke-opacity:1" />
    <polyline
       points="268,298 265,299 264,299"
       stroke="green"
       id="polyline265"
       style="stroke:#00274b;stroke-opacity:1" />
    <polyline
       points="157,257 154,249"
       stroke="green"
       id="polyline267"
       style="stroke:#00274b;stroke-opacity:1" />
    <polyline
       points="154,249 155,249"
       stroke="green"
       id="polyline269"
       style="stroke:#00274b;stroke-opacity:1" />
    <polyline
       points="155,249 150,236 147,226 146,224 145,223"
       stroke="green"
       id="polyline271"
       style="stroke:#00274b;stroke-opacity:1" />
    <polyline
       points="162,248 158,235"
       stroke="green"
       id="polyline273"
       style="stroke:#00274b;stroke-opacity:1" />
    <polyline
       points="158,235 158,235"
       stroke="green"
       id="polyline275"
       style="stroke:#00274b;stroke-opacity:1" />
    <polyline
       points="164,255 161,248"
       stroke="green"
       id="polyline277"
       style="stroke:#00274b;stroke-opacity:1" />
    <polyline
       points="161,248 162,248"
       stroke="green"
       id="polyline279"
       style="stroke:#00274b;stroke-opacity:1" />
    <polyline
       points="158,235 158,233 155,225 155,225 154,223 153,219"
       stroke="green"
       id="polyline281"
       style="stroke:#00274b;stroke-opacity:1" />
    <polyline
       points="173,254 171,247"
       stroke="green"
       id="polyline283"
       style="stroke:#00274b;stroke-opacity:1" />
    <polyline
       points="133,243 131,239 147,237 150,236"
       stroke="green"
       id="polyline285"
       style="stroke:#00274b;stroke-opacity:1" />
    <polyline
       points="140,227 144,227"
       stroke="green"
       id="polyline287"
       style="stroke:#00274b;stroke-opacity:1" />
    <polyline
       points="166,215 165,213"
       stroke="green"
       id="polyline289"
       style="stroke:#00274b;stroke-opacity:1" />
    <polyline
       points="153,219 152,217"
       stroke="green"
       id="polyline291"
       style="stroke:#00274b;stroke-opacity:1" />
    <polyline
       points="160,217 159,215"
       stroke="green"
       id="polyline293"
       style="stroke:#00274b;stroke-opacity:1" />
    <polyline
       points="145,223 144,220"
       stroke="green"
       id="polyline295"
       style="stroke:#00274b;stroke-opacity:1" />
    <polyline
       points="138,222 140,227 141,231"
       stroke="black"
       id="polyline297"
       style="stroke:#00274b;stroke-opacity:1" />
    <polyline
       points="328,178 329,179"
       stroke="black"
       id="polyline299"
       style="stroke:#00274b;stroke-opacity:1" />
    <polyline
       points="328,177 328,178"
       stroke="black"
       id="polyline301"
       style="stroke:#00274b;stroke-opacity:1" />
    <polyline
       points="310,151 307,151"
       stroke="green"
       id="polyline303"
       style="stroke:#00274b;stroke-opacity:1" />
    <polyline
       points="307,151 305,151"
       stroke="green"
       id="polyline305"
       style="stroke:#00274b;stroke-opacity:1" />
    <polyline
       points="404,148 404,151"
       stroke="black"
       id="polyline307"
       style="stroke:#00274b;stroke-opacity:1" />
    <polyline
       points="349,230 369,231 386,232 387,232 396,233 405,234 407,234"
       stroke="green"
       id="polyline309"
       style="stroke:#00274b;stroke-opacity:1" />
    <polyline
       points="270,246 269,245"
       stroke="green"
       id="polyline311"
       style="stroke:#00274b;stroke-opacity:1" />
    <polyline
       points="216,168 212,165"
       stroke="green"
       id="polyline313"
       style="stroke:#00274b;stroke-opacity:1" />
    <polyline
       points="222,163 222,162"
       stroke="black"
       id="polyline315"
       style="stroke:#00274b;stroke-opacity:1" />
    <polyline
       points="437,266 439,261 440,257 427,255 420,254 416,263 424,264 437,266"
       stroke="green"
       id="polyline317"
       style="stroke:#00274b;stroke-opacity:1" />
    <polyline
       points="424,264 427,255"
       stroke="green"
       id="polyline319"
       style="stroke:#00274b;stroke-opacity:1" />
    <polyline
       points="349,237 350,238"
       stroke="green"
       id="polyline321"
       style="stroke:#00274b;stroke-opacity:1" />
    <polyline
       points="61,184 72,182 73,181 73,180 63,158 62,155 61,151 58,140 57,138 55,138 53,138 18,144 -11,147 -14,147 -18,147 -19,148"
       stroke="green"
       id="polyline323"
       style="stroke:#00274b;stroke-opacity:1" />
    <polyline
       points="76,145 84,155 88,174 87,175 79,176 78,177 76,176 69,161 69,157 68,155 66,142 66,140 66,138 68,137 69,136 71,137 73,141 76,145"
       stroke="green"
       id="polyline325"
       style="stroke:#00274b;stroke-opacity:1" />
    <polyline
       points="-6,201 -7,199 11,197 43,192 73,185 76,185"
       stroke="green"
       id="polyline327"
       style="stroke:#00274b;stroke-opacity:1" />
    <polyline
       points="173,265 175,270"
       stroke="green"
       id="polyline329"
       style="stroke:#00274b;stroke-opacity:1" />
    <polyline
       points="169,256 170,259"
       stroke="green"
       id="polyline331"
       style="stroke:#00274b;stroke-opacity:1" />
    <polyline
       points="170,259 173,265"
       stroke="green"
       id="polyline333"
       style="stroke:#00274b;stroke-opacity:1" />
    <polyline
       points="164,260 168,271"
       stroke="green"
       id="polyline335"
       style="stroke:#00274b;stroke-opacity:1" />
    <polyline
       points="162,257 164,260"
       stroke="green"
       id="polyline337"
       style="stroke:#00274b;stroke-opacity:1" />
    <polyline
       points="122,263 118,261 111,249 104,237 101,232 97,223 91,213 85,201 83,198 77,185 75,179"
       stroke="black"
       id="polyline339"
       style="stroke:#00274b;stroke-opacity:1" />
    <polyline
       points="339,306 343,305"
       stroke="green"
       id="polyline341"
       style="stroke:#00274b;stroke-opacity:1" />
    <polyline
       points="326,308 328,308"
       stroke="green"
       id="polyline343"
       style="stroke:#00274b;stroke-opacity:1" />
    <polyline
       points="351,321 366,318"
       stroke="green"
       id="polyline345"
       style="stroke:#00274b;stroke-opacity:1" />
    <polyline
       points="363,314 366,314"
       stroke="green"
       id="polyline347"
       style="stroke:#00274b;stroke-opacity:1" />
    <polyline
       points="368,317 368,317 367,318 366,318"
       stroke="green"
       id="polyline349"
       style="stroke:#00274b;stroke-opacity:1" />
    <polyline
       points="163,172 140,173"
       stroke="black"
       id="polyline351"
       style="stroke:#00274b;stroke-opacity:1" />
    <polyline
       points="140,173 138,173"
       stroke="black"
       id="polyline353"
       style="stroke:#00274b;stroke-opacity:1" />
    <polyline
       points="414,148 413,149"
       stroke="green"
       id="polyline355"
       style="stroke:#00274b;stroke-opacity:1" />
    <polyline
       points="57,159 61,159"
       stroke="green"
       id="polyline357"
       style="stroke:#00274b;stroke-opacity:1" />
    <polyline
       points="61,159 63,158 65,158 69,157"
       stroke="green"
       id="polyline359"
       style="stroke:#00274b;stroke-opacity:1" />
    <polyline
       points="152,269 150,262 149,259"
       stroke="green"
       id="polyline361"
       style="stroke:#00274b;stroke-opacity:1" />
    <polyline
       points="387,231 387,232"
       stroke="black"
       id="polyline363"
       style="stroke:#00274b;stroke-opacity:1" />
    <polyline
       points="277,222 277,224"
       stroke="black"
       id="polyline365"
       style="stroke:#00274b;stroke-opacity:1" />
    <polyline
       points="218,341 220,341 227,341"
       stroke="green"
       id="polyline367"
       style="stroke:#00274b;stroke-opacity:1" />
    <polyline
       points="439,240 423,237 408,235 407,234"
       stroke="green"
       id="polyline369"
       style="stroke:#00274b;stroke-opacity:1" />
    <polyline
       points="401,281 400,270 400,268 398,268 400,261 402,261 404,257"
       stroke="black"
       id="polyline371"
       style="stroke:#00274b;stroke-opacity:1" />
    <polyline
       points="165,161 167,161"
       stroke="green"
       id="polyline373"
       style="stroke:#00274b;stroke-opacity:1" />
    <polyline
       points="166,163 166,162"
       stroke="black"
       id="polyline375"
       style="stroke:#00274b;stroke-opacity:1" />
    <polyline
       points="165,162 166,162"
       stroke="black"
       id="polyline377"
       style="stroke:#00274b;stroke-opacity:1" />
    <polyline
       points="277,222 277,222 276,221 276,219 273,213 273,212 273,212"
       stroke="green"
       id="polyline379"
       style="stroke:#00274b;stroke-opacity:1" />
    <polyline
       points="156,335 158,351 158,353 159,357 160,361 162,376"
       stroke="blue"
       id="polyline381"
       style="stroke:#00274b;stroke-opacity:1" />
    <polyline
       points="259,190 260,191"
       stroke="green"
       id="polyline383"
       style="stroke:#00274b;stroke-opacity:1" />
    <polyline
       points="249,165 250,167 252,173"
       stroke="green"
       id="polyline385"
       style="stroke:#00274b;stroke-opacity:1" />
    <polyline
       points="162,168 203,163 222,160"
       stroke="black"
       id="polyline387"
       style="stroke:#00274b;stroke-opacity:1" />
    <polyline
       points="333,232 341,231"
       stroke="black"
       id="polyline389"
       style="stroke:#00274b;stroke-opacity:1" />
    <polyline
       points="342,236 333,236"
       stroke="black"
       id="polyline391"
       style="stroke:#00274b;stroke-opacity:1" />
    <polyline
       points="295,236 299,235 323,231 345,230 349,230"
       stroke="green"
       id="polyline393"
       style="stroke:#00274b;stroke-opacity:1" />
    <polyline
       points="404,241 401,241 385,239 385,238 369,237 358,237 350,236 349,237 328,238 325,238 310,240 297,241 290,242 269,245 243,250"
       stroke="green"
       id="polyline395"
       style="stroke:#00274b;stroke-opacity:1" />
    <polyline
       points="324,232 323,231"
       stroke="green"
       id="polyline397"
       style="stroke:#00274b;stroke-opacity:1" />
    <polyline
       points="325,237 325,238"
       stroke="green"
       id="polyline399"
       style="stroke:#00274b;stroke-opacity:1" />
    <polyline
       points="341,231 348,232"
       stroke="black"
       id="polyline401"
       style="stroke:#00274b;stroke-opacity:1" />
    <polyline
       points="333,236 327,236"
       stroke="black"
       id="polyline403"
       style="stroke:#00274b;stroke-opacity:1" />
    <polyline
       points="350,236 350,236"
       stroke="green"
       id="polyline405"
       style="stroke:#00274b;stroke-opacity:1" />
    <polyline
       points="342,233 346,233"
       stroke="blue"
       id="polyline407"
       style="stroke:#00274b;stroke-opacity:1" />
    <polyline
       points="348,232 352,232 385,233 386,233 387,233 406,236"
       stroke="blue"
       id="polyline409"
       style="stroke:#00274b;stroke-opacity:1" />
    <polyline
       points="349,235 342,236"
       stroke="black"
       id="polyline411"
       style="stroke:#00274b;stroke-opacity:1" />
    <polyline
       points="415,239 413,240 405,239"
       stroke="blue"
       id="polyline413"
       style="stroke:#00274b;stroke-opacity:1" />
    <polyline
       points="333,234 329,235"
       stroke="blue"
       id="polyline415"
       style="stroke:#00274b;stroke-opacity:1" />
    <polyline
       points="327,236 322,236 318,235"
       stroke="blue"
       id="polyline417"
       style="stroke:#00274b;stroke-opacity:1" />
    <polyline
       points="326,233 329,233"
       stroke="blue"
       id="polyline419"
       style="stroke:#00274b;stroke-opacity:1" />
    <polyline
       points="326,233 333,232"
       stroke="black"
       id="polyline421"
       style="stroke:#00274b;stroke-opacity:1" />
    <polyline
       points="329,233 329,235"
       stroke="blue"
       id="polyline423"
       style="stroke:#00274b;stroke-opacity:1" />
    <polyline
       points="347,234 346,233"
       stroke="blue"
       id="polyline425"
       style="stroke:#00274b;stroke-opacity:1" />
    <polyline
       points="329,235 327,236"
       stroke="blue"
       id="polyline427"
       style="stroke:#00274b;stroke-opacity:1" />
    <polyline
       points="329,233 333,234"
       stroke="blue"
       id="polyline429"
       style="stroke:#00274b;stroke-opacity:1" />
    <polyline
       points="318,235 322,233 326,233"
       stroke="blue"
       id="polyline431"
       style="stroke:#00274b;stroke-opacity:1" />
    <polyline
       points="349,230 350,231"
       stroke="green"
       id="polyline433"
       style="stroke:#00274b;stroke-opacity:1" />
    <polyline
       points="347,234 342,233"
       stroke="blue"
       id="polyline435"
       style="stroke:#00274b;stroke-opacity:1" />
    <polyline
       points="349,235 347,234"
       stroke="blue"
       id="polyline437"
       style="stroke:#00274b;stroke-opacity:1" />
    <polyline
       points="346,233 348,232"
       stroke="blue"
       id="polyline439"
       style="stroke:#00274b;stroke-opacity:1" />
    <polyline
       points="183,256 182,254 182,253"
       stroke="green"
       id="polyline441"
       style="stroke:#00274b;stroke-opacity:1" />
    <polyline
       points="386,233 386,233"
       stroke="green"
       id="polyline443"
       style="stroke:#00274b;stroke-opacity:1" />
    <polyline
       points="386,233 386,232"
       stroke="green"
       id="polyline445"
       style="stroke:#00274b;stroke-opacity:1" />
    <polyline
       points="386,238 385,239"
       stroke="green"
       id="polyline447"
       style="stroke:#00274b;stroke-opacity:1" />
    <polyline
       points="405,239 405,240"
       stroke="green"
       id="polyline449"
       style="stroke:#00274b;stroke-opacity:1" />
    <polyline
       points="405,240 404,241 404,241"
       stroke="green"
       id="polyline451"
       style="stroke:#00274b;stroke-opacity:1" />
    <polyline
       points="404,241 412,242"
       stroke="green"
       id="polyline453"
       style="stroke:#00274b;stroke-opacity:1" />
    <polyline
       points="412,242 415,243 436,245 454,247"
       stroke="green"
       id="polyline455"
       style="stroke:#00274b;stroke-opacity:1" />
    <polyline
       points="144,317 143,317 143,316 144,316 144,317"
       stroke="black"
       id="polyline457"
       style="stroke:#00274b;stroke-opacity:1" />
    <polyline
       points="144,316 144,317 144,317 144,317"
       stroke="black"
       id="polyline459"
       style="stroke:#00274b;stroke-opacity:1" />
    <polyline
       points="139,317 144,317"
       stroke="black"
       id="polyline461"
       style="stroke:#00274b;stroke-opacity:1" />
    <polyline
       points="147,317 146,317"
       stroke="black"
       id="polyline463"
       style="stroke:#00274b;stroke-opacity:1" />
    <polyline
       points="144,317 145,317 146,317 146,317"
       stroke="black"
       id="polyline465"
       style="stroke:#00274b;stroke-opacity:1" />
    <polyline
       points="144,317 144,317"
       stroke="black"
       id="polyline467"
       style="stroke:#00274b;stroke-opacity:1" />
    <polyline
       points="146,317 146,318 147,318"
       stroke="black"
       id="polyline469"
       style="stroke:#00274b;stroke-opacity:1" />
    <polyline
       points="143,317 142,318"
       stroke="black"
       id="polyline471"
       style="stroke:#00274b;stroke-opacity:1" />
    <polyline
       points="143,317 143,318"
       stroke="black"
       id="polyline473"
       style="stroke:#00274b;stroke-opacity:1" />
    <polyline
       points="143,317 143,318"
       stroke="black"
       id="polyline475"
       style="stroke:#00274b;stroke-opacity:1" />
    <polyline
       points="143,317 141,318"
       stroke="black"
       id="polyline477"
       style="stroke:#00274b;stroke-opacity:1" />
    <polyline
       points="111,317 112,311 120,309"
       stroke="black"
       id="polyline479"
       style="stroke:#00274b;stroke-opacity:1" />
    <polyline
       points="79,308 82,307"
       stroke="black"
       id="polyline481"
       style="stroke:#00274b;stroke-opacity:1" />
    <polyline
       points="75,310 75,306 78,306 79,308 79,310 77,311"
       stroke="black"
       id="polyline483"
       style="stroke:#00274b;stroke-opacity:1" />
    <polyline
       points="74,315 75,310"
       stroke="black"
       id="polyline485"
       style="stroke:#00274b;stroke-opacity:1" />
    <polyline
       points="77,311 77,315"
       stroke="black"
       id="polyline487"
       style="stroke:#00274b;stroke-opacity:1" />
    <polyline
       points="88,316 88,315"
       stroke="black"
       id="polyline489"
       style="stroke:#00274b;stroke-opacity:1" />
    <polyline
       points="98,296 98,297 98,298 99,300"
       stroke="black"
       id="polyline491"
       style="stroke:#00274b;stroke-opacity:1" />
    <polyline
       points="146,305 143,305 133,307 123,308"
       stroke="black"
       id="polyline493"
       style="stroke:#00274b;stroke-opacity:1" />
    <polyline
       points="119,284 100,287"
       stroke="black"
       id="polyline495"
       style="stroke:#00274b;stroke-opacity:1" />
    <polyline
       points="100,287 101,296"
       stroke="black"
       id="polyline497"
       style="stroke:#00274b;stroke-opacity:1" />
    <polyline
       points="48,305 51,305"
       stroke="black"
       id="polyline499"
       style="stroke:#00274b;stroke-opacity:1" />
    <polyline
       points="36,302 44,301"
       stroke="black"
       id="polyline501"
       style="stroke:#00274b;stroke-opacity:1" />
    <polyline
       points="44,301 46,300"
       stroke="black"
       id="polyline503"
       style="stroke:#00274b;stroke-opacity:1" />
    <polyline
       points="51,305 55,304"
       stroke="black"
       id="polyline505"
       style="stroke:#00274b;stroke-opacity:1" />
    <polyline
       points="52,329 56,329"
       stroke="black"
       id="polyline507"
       style="stroke:#00274b;stroke-opacity:1" />
    <polyline
       points="55,328 55,325 54,320 53,315 48,305 46,300 45,299 43,294"
       stroke="black"
       id="polyline509"
       style="stroke:#00274b;stroke-opacity:1" />
    <polyline
       points="88,312 88,310 93,310"
       stroke="black"
       id="polyline511"
       style="stroke:#00274b;stroke-opacity:1" />
    <polyline
       points="88,315 88,312"
       stroke="black"
       id="polyline513"
       style="stroke:#00274b;stroke-opacity:1" />
    <polyline
       points="87,185 87,185"
       stroke="black"
       id="polyline515"
       style="stroke:#00274b;stroke-opacity:1" />
    <polyline
       points="144,317 143,317 143,316 144,316 144,317"
       stroke="black"
       id="polyline517"
       style="stroke:#00274b;stroke-opacity:1" />
    <polyline
       points="143,317 143,316 144,316 144,317"
       stroke="black"
       id="polyline519"
       style="stroke:#00274b;stroke-opacity:1" />
    <polyline
       points="143,317 143,316 144,316 144,317"
       stroke="black"
       id="polyline521"
       style="stroke:#00274b;stroke-opacity:1" />
    <polyline
       points="405,239 386,237 385,237 381,236 353,235 349,235"
       stroke="blue"
       id="polyline523"
       style="stroke:#00274b;stroke-opacity:1" />
    <polyline
       points="406,236 414,237 415,239"
       stroke="blue"
       id="polyline525"
       style="stroke:#00274b;stroke-opacity:1" />
    <polyline
       points="349,161 343,160 339,160 336,159 331,158 330,157 330,154 330,152 332,151 332,150 333,150"
       stroke="black"
       id="polyline527"
       style="stroke:#00274b;stroke-opacity:1" />
    <polyline
       points="415,243 410,249"
       stroke="green"
       id="polyline529"
       style="stroke:#00274b;stroke-opacity:1" />
  </g>
</svg>
