<?xml version="1.0" encoding="UTF-8" standalone="yes"?>
<!DOCTYPE svg PUBLIC "-//W3C//DTD SVG 1.0//EN" "http://www.w3.org/TR/2001/REC-SVG-20010904/DTD/svg10.dtd">
<svg height="1000" width="1000" xmlns="http://www.w3.org/2000/svg" xmlns:svg="http://www.w3.org/2000/svg" xmlns:xlink="http://www.w3.org/1999/xlink">
	<polyline id="pline_0" points="229,316,222,299,218,292,215,284,210,269" style="fill-opacity: 0; stroke: black" />
	<polyline id="pline_1" points="187,268,191,286,187,300" style="fill-opacity: 0; stroke: black" />
	<polyline id="pline_2" points="156,269,161,282,164,292,167,296,168,297,178,301" style="fill-opacity: 0; stroke: black" />
	<polyline id="pline_3" points="110,275,118,297,123,304" style="fill-opacity: 0; stroke: black" />
	<polyline id="pline_4" points="123,304,124,303,126,302,148,300,166,298,168,297" style="fill-opacity: 0; stroke: black" />
	<polyline id="pline_5" points="102,230,128,226,145,224,168,222,170,221" style="fill-opacity: 0; stroke: black" />
	<polyline id="pline_6" points="169,167,173,172,177,176,181,181,185,185,185,186" style="fill-opacity: 0; stroke: black" />
	<polyline id="pline_7" points="204,235,202,239,200,241,197,242,193,243,189,243,181,242,177,238,170,224,170,221,171,217,173,215,177,213,184,212,190,213,193,214,196,216" style="fill-opacity: 0; stroke: black" />
	<polyline id="pline_8" points="177,238,178,246,183,265" style="fill-opacity: 0; stroke: black" />
	<polyline id="pline_9" points="115,275,112,267" style="fill-opacity: 0; stroke: black" />
	<polyline id="pline_10" points="251,256,260,255" style="fill-opacity: 0; stroke: black" />
	<polyline id="pline_11" points="42,286,50,284,65,281,66,281,74,280,79,279,82,279,86,278,90,278,91,278,98,277,99,276,110,275,115,275,156,269,183,265,186,265,207,261,214,260,217,260,236,257" style="fill-opacity: 0; stroke: black" />
	<polyline id="pline_12" points="213,118,215,118,226,117,232,117,261,118,279,119" style="fill-opacity: 0; stroke: black" />
	<polyline id="pline_13" points="231,21,251,44,256,51,262,58,263,60,263,61,266,68,267,73,271,85,273,91,279,119,279,121,279,142,279,162,278,165" style="fill-opacity: 0; stroke: black" />
	<polyline id="pline_14" points="279,142,298,143,300,143,314,143,352,147,365,149,371,151,385,154" style="fill-opacity: 0; stroke: black" />
	<polyline id="pline_15" points="169,167,172,166,175,165,181,164,194,163,206,163,224,163,231,163,239,163,249,163,250,163,278,165" style="fill-opacity: 0; stroke: black" />
	<polyline id="pline_16" points="246,295,222,299" style="fill-opacity: 0; stroke: black" />
	<polyline id="pline_17" points="304,255,303,259,303,260,300,289,297,290,299,302,299,306" style="fill-opacity: 0; stroke: black" />
	<polyline id="pline_18" points="82,279,81,277" style="fill-opacity: 0; stroke: black" />
	<polyline id="pline_19" points="91,278,90,276" style="fill-opacity: 0; stroke: black" />
	<polyline id="pline_20" points="98,277,97,275" style="fill-opacity: 0; stroke: black" />
	<polyline id="pline_21" points="67,258,75,257" style="fill-opacity: 0; stroke: black" />
	<polyline id="pline_22" points="61,249,64,248,72,247" style="fill-opacity: 0; stroke: black" />
	<polyline id="pline_23" points="63,246,71,245" style="fill-opacity: 0; stroke: black" />
	<polyline id="pline_24" points="224,163,224,164,224,168,223,171,223,172,223,173" style="fill-opacity: 0; stroke: black" />
	<polyline id="pline_25" points="245,198,246,198" style="fill-opacity: 0; stroke: black" />
	<polyline id="pline_26" points="201,186,203,179,211,179,217,178,227,179,228,173,228,172" style="fill-opacity: 0; stroke: black" />
	<polyline id="pline_27" points="98,231,102,230" style="fill-opacity: 0; stroke: black" />
	<polyline id="pline_28" points="204,235,207,242,213,251,217,260" style="fill-opacity: 0; stroke: black" />
	<polyline id="pline_29" points="185,186,188,191,194,208,194,211,196,216,197,219,204,235" style="fill-opacity: 0; stroke: black" />
	<polyline id="pline_30" points="57,194,79,189" style="fill-opacity: 0; stroke: black" />
	<polyline id="pline_31" points="336,261,333,261" style="fill-opacity: 0; stroke: black" />
	<polyline id="pline_32" points="323,261,324,258,325,256,326,252,328,247,330,239,329,234,326,217,325,216,323,216,298,215,286,215,257,211,256,211,251,211,249,210,247,201" style="fill-opacity: 0; stroke: black" />
	<polyline id="pline_33" points="75,255,80,255" style="fill-opacity: 0; stroke: black" />
	<polyline id="pline_34" points="72,247,79,246,86,245" style="fill-opacity: 0; stroke: black" />
	<polyline id="pline_35" points="72,271,78,270" style="fill-opacity: 0; stroke: black" />
	<polyline id="pline_36" points="79,270,87,269,88,269,94,268" style="fill-opacity: 0; stroke: black" />
	<polyline id="pline_37" points="139,181,121,188,85,193,80,193" style="fill-opacity: 0; stroke: black" />
	<polyline id="pline_38" points="139,181,149,178,151,177,162,171,169,167" style="fill-opacity: 0; stroke: black" />
	<polyline id="pline_39" points="80,193,80,192,79,189" style="fill-opacity: 0; stroke: black" />
	<polyline id="pline_40" points="210,269,208,264" style="fill-opacity: 0; stroke: black" />
	<polyline id="pline_41" points="88,209,81,195,80,193" style="fill-opacity: 0; stroke: black" />
	<polyline id="pline_42" points="184,309,184,308,185,306" style="fill-opacity: 0; stroke: black" />
	<polyline id="pline_43" points="185,306,183,303,178,301" style="fill-opacity: 0; stroke: black" />
	<polyline id="pline_44" points="187,300,183,303" style="fill-opacity: 0; stroke: black" />
	<polyline id="pline_45" points="112,267,111,256,106,246,101,236,98,231" style="fill-opacity: 0; stroke: black" />
	<polyline id="pline_46" points="278,165,295,167,322,169,331,170,354,172,370,174,378,175" style="fill-opacity: 0; stroke: black" />
	<polyline id="pline_47" points="28,251,55,244,61,242,69,239,76,237,82,235,97,232,98,231" style="fill-opacity: 0; stroke: black" />
	<polyline id="pline_48" points="245,198,255,199" style="fill-opacity: 0; stroke: black" />
	<polyline id="pline_49" points="8,197,17,196,54,194,55,194" style="fill-opacity: 0; stroke: black" />
	<polyline id="pline_50" points="83,254,89,253" style="fill-opacity: 0; stroke: black" />
	<polyline id="pline_51" points="81,253,79,246,77,239" style="fill-opacity: 0; stroke: black" />
	<polyline id="pline_52" points="82,255,82,255,82,255,81,255,81,255,81,255,80,255,80,254,81,254,81,254,81,253,82,253,83,254,83,254,83,254,83,254,83,255,83,255,82,255" style="fill-opacity: 0; stroke: black" />
	<polyline id="pline_53" points="100,65,101,67,102,68,113,86,131,113,139,125,140,126,141,127,148,137,153,145,155,148,156,149,157,152,158,153,159,155,160,157,164,162,165,164,169,167" style="fill-opacity: 0; stroke: black" />
	<polyline id="pline_54" points="191,283,188,284,184,284" style="fill-opacity: 0; stroke: black" />
	<polyline id="pline_55" points="10,222,25,220,39,217,64,213,88,209" style="fill-opacity: 0; stroke: black" />
	<polyline id="pline_56" points="239,180,227,179" style="fill-opacity: 0; stroke: black" />
	<polyline id="pline_57" points="305,251,307,237" style="fill-opacity: 0; stroke: black" />
	<polyline id="pline_58" points="266,228,269,238,269,238,270,242,272,242" style="fill-opacity: 0; stroke: black" />
	<polyline id="pline_59" points="305,253,305,252,305,251" style="fill-opacity: 0; stroke: black" />
	<polyline id="pline_60" points="269,238,277,238,278,240,281,241,284,240" style="fill-opacity: 0; stroke: black" />
	<polyline id="pline_61" points="305,255,305,254,305,254" style="fill-opacity: 0; stroke: black" />
	<polyline id="pline_62" points="289,229,296,229" style="fill-opacity: 0; stroke: black" />
	<polyline id="pline_63" points="258,229,266,228,268,228,272,227,281,227,288,229,289,229" style="fill-opacity: 0; stroke: black" />
	<polyline id="pline_64" points="256,214,255,217,255,221,257,222,258,229" style="fill-opacity: 0; stroke: black" />
	<polyline id="pline_65" points="308,231,308,228,297,227" style="fill-opacity: 0; stroke: black" />
	<polyline id="pline_66" points="298,217,298,215" style="fill-opacity: 0; stroke: black" />
	<polyline id="pline_67" points="296,229,297,229,297,227,298,217" style="fill-opacity: 0; stroke: black" />
	<polyline id="pline_68" points="257,211,256,214" style="fill-opacity: 0; stroke: black" />
	<polyline id="pline_69" points="268,228,269,229,272,236,286,236,287,230,272,229,269,229" style="fill-opacity: 0; stroke: black" />
	<polyline id="pline_70" points="307,237,307,233,308,231" style="fill-opacity: 0; stroke: black" />
	<polyline id="pline_71" points="215,118,211,106,219,105,221,103" style="fill-opacity: 0; stroke: black" />
	<polyline id="pline_72" points="131,176,122,157,121,157,156,149" style="fill-opacity: 0; stroke: black" />
	<polyline id="pline_73" points="71,224,78,223,86,222,87,224,89,228,82,230,75,231,74,229,71,224" style="fill-opacity: 0; stroke: black" />
	<polyline id="pline_74" points="82,230,82,229,80,226,79,223,78,223" style="fill-opacity: 0; stroke: black" />
	<polyline id="pline_75" points="50,227,62,224,66,231,67,233,55,236,50,227" style="fill-opacity: 0; stroke: black" />
	<polyline id="pline_76" points="66,231,68,230" style="fill-opacity: 0; stroke: black" />
	<polyline id="pline_77" points="87,269,82,255" style="fill-opacity: 0; stroke: black" />
	<polyline id="pline_78" points="282,305,279,295,293,293" style="fill-opacity: 0; stroke: black" />
	<polyline id="pline_79" points="283,121,305,121,305,129" style="fill-opacity: 0; stroke: black" />
	<polyline id="pline_80" points="279,121,283,121" style="fill-opacity: 0; stroke: black" />
	<polyline id="pline_81" points="3,157,11,170,14,177,29,180" style="fill-opacity: 0; stroke: black" />
	<polyline id="pline_82" points="60,189,60,188" style="fill-opacity: 0; stroke: black" />
	<polyline id="pline_83" points="92,156,88,147,81,135" style="fill-opacity: 0; stroke: black" />
	<polyline id="pline_84" points="78,187,77,185,76,182,66,161" style="fill-opacity: 0; stroke: black" />
	<polyline id="pline_85" points="45,180,43,180,39,179,39,178,29,180,24,168,16,151,28,150" style="fill-opacity: 0; stroke: black" />
	<polyline id="pline_86" points="139,125,135,125" style="fill-opacity: 0; stroke: black" />
	<polyline id="pline_87" points="11,170,24,168,29,167,44,164,38,154" style="fill-opacity: 0; stroke: black" />
	<polyline id="pline_88" points="68,230,73,229" style="fill-opacity: 0; stroke: black" />
	<polyline id="pline_89" points="73,229,74,229,77,227,80,226,82,226,85,225,87,224,87,224,88,224" style="fill-opacity: 0; stroke: black" />
	<polyline id="pline_90" points="92,224,94,223" style="fill-opacity: 0; stroke: black" />
	<polyline id="pline_91" points="88,224,92,224" style="fill-opacity: 0; stroke: black" />
	<polyline id="pline_92" points="103,61,104,64,109,71,115,81,122,92,132,109,143,125,146,129" style="fill-opacity: 0; stroke: black" />
	<polyline id="pline_93" points="95,289,91,281" style="fill-opacity: 0; stroke: black" />
	<polyline id="pline_94" points="91,281,90,278" style="fill-opacity: 0; stroke: black" />
	<polyline id="pline_95" points="98,231,98,231,94,223,93,220,88,209" style="fill-opacity: 0; stroke: black" />
	<polyline id="pline_96" points="127,190,128,192" style="fill-opacity: 0; stroke: black" />
	<polyline id="pline_97" points="162,176,163,178" style="fill-opacity: 0; stroke: black" />
	<polyline id="pline_98" points="187,201,182,201" style="fill-opacity: 0; stroke: black" />
	<polyline id="pline_99" points="175,209,176,212" style="fill-opacity: 0; stroke: black" />
	<polyline id="pline_100" points="169,194,171,197" style="fill-opacity: 0; stroke: black" />
	<polyline id="pline_101" points="163,178,166,186" style="fill-opacity: 0; stroke: black" />
	<polyline id="pline_102" points="181,214,183,220" style="fill-opacity: 0; stroke: black" />
	<polyline id="pline_103" points="156,189,167,188,180,186,185,185" style="fill-opacity: 0; stroke: black" />
	<polyline id="pline_104" points="213,258,214,260,215,263" style="fill-opacity: 0; stroke: black" />
	<polyline id="pline_105" points="97,275,95,268,94,268,89,253,86,245,83,237" style="fill-opacity: 0; stroke: black" />
	<polyline id="pline_106" points="268,258,268,255,268,253" style="fill-opacity: 0; stroke: black" />
	<polyline id="pline_107" points="243,259,242,256,242,254" style="fill-opacity: 0; stroke: black" />
	<polyline id="pline_108" points="74,279,71,271" style="fill-opacity: 0; stroke: black" />
	<polyline id="pline_109" points="71,271,72,271" style="fill-opacity: 0; stroke: black" />
	<polyline id="pline_110" points="72,271,67,258,64,248,63,246,62,245" style="fill-opacity: 0; stroke: black" />
	<polyline id="pline_111" points="79,270,75,257" style="fill-opacity: 0; stroke: black" />
	<polyline id="pline_112" points="75,257,75,257" style="fill-opacity: 0; stroke: black" />
	<polyline id="pline_113" points="81,277,78,270" style="fill-opacity: 0; stroke: black" />
	<polyline id="pline_114" points="78,270,79,270" style="fill-opacity: 0; stroke: black" />
	<polyline id="pline_115" points="75,257,75,255,72,247,72,247,71,245,70,241" style="fill-opacity: 0; stroke: black" />
	<polyline id="pline_116" points="90,276,88,269" style="fill-opacity: 0; stroke: black" />
	<polyline id="pline_117" points="50,265,48,261,64,259,67,258" style="fill-opacity: 0; stroke: black" />
	<polyline id="pline_118" points="57,249,61,249" style="fill-opacity: 0; stroke: black" />
	<polyline id="pline_119" points="83,237,82,235" style="fill-opacity: 0; stroke: black" />
	<polyline id="pline_120" points="70,241,69,239" style="fill-opacity: 0; stroke: black" />
	<polyline id="pline_121" points="77,239,76,237" style="fill-opacity: 0; stroke: black" />
	<polyline id="pline_122" points="62,245,61,242" style="fill-opacity: 0; stroke: black" />
	<polyline id="pline_123" points="55,244,57,249,58,253" style="fill-opacity: 0; stroke: black" />
	<polyline id="pline_124" points="246,200,247,201" style="fill-opacity: 0; stroke: black" />
	<polyline id="pline_125" points="246,198,246,200" style="fill-opacity: 0; stroke: black" />
	<polyline id="pline_126" points="228,172,225,172" style="fill-opacity: 0; stroke: black" />
	<polyline id="pline_127" points="225,172,223,172" style="fill-opacity: 0; stroke: black" />
	<polyline id="pline_128" points="261,199,261,199,262,199,263,197,268,196,273,195,276,195,283,195,285,196,288,197,289,199,290,202,291,202,292,202" style="fill-opacity: 0; stroke: black" />
	<polyline id="pline_129" points="322,172,321,175" style="fill-opacity: 0; stroke: black" />
	<polyline id="pline_130" points="322,169,322,172" style="fill-opacity: 0; stroke: black" />
	<polyline id="pline_131" points="255,199,261,199" style="fill-opacity: 0; stroke: black" />
	<polyline id="pline_132" points="286,194,287,190" style="fill-opacity: 0; stroke: black" />
	<polyline id="pline_133" points="292,202,296,203" style="fill-opacity: 0; stroke: black" />
	<polyline id="pline_134" points="319,194,330,195,332,196" style="fill-opacity: 0; stroke: black" />
	<polyline id="pline_135" points="285,196,286,195,286,194" style="fill-opacity: 0; stroke: black" />
	<polyline id="pline_136" points="263,197,262,197,262,197" style="fill-opacity: 0; stroke: black" />
	<polyline id="pline_137" points="262,197,254,196" style="fill-opacity: 0; stroke: black" />
	<polyline id="pline_138" points="296,203,297,203,327,205,330,205,332,196,333,195,334,195,336,195,380,199,383,199,385,199,386,200,384,219,383,220,382,222,382,237,382,238,381,239,379,240,376,240,363,240,362,239,363,226,364,214,363,213,331,213,330,213,329,212,329,211,330,205" style="fill-opacity: 0; stroke: black" />
	<polyline id="pline_139" points="252,196,227,193,230,182,255,185,252,196" style="fill-opacity: 0; stroke: black" />
	<polyline id="pline_140" points="267,182,293,185,321,187,369,192" style="fill-opacity: 0; stroke: black" />
	<polyline id="pline_141" points="287,190,287,189,292,189,292,189,292,188,293,185" style="fill-opacity: 0; stroke: black" />
	<polyline id="pline_142" points="321,175,320,183,320,184,321,187,321,188,321,189,320,192,319,194,318,197" style="fill-opacity: 0; stroke: black" />
	<polyline id="pline_143" points="267,252,287,253,304,254,305,254,314,255,323,256,325,256" style="fill-opacity: 0; stroke: black" />
	<polyline id="pline_144" points="187,268,186,267" style="fill-opacity: 0; stroke: black" />
	<polyline id="pline_145" points="133,189,129,186" style="fill-opacity: 0; stroke: black" />
	<polyline id="pline_146" points="139,184,139,183" style="fill-opacity: 0; stroke: black" />
	<polyline id="pline_147" points="237,274,237,276,238,277,239,278,242,279,243,279,244,280,247,280,250,280,254,280,256,280,262,280" style="fill-opacity: 0; stroke: black" />
	<polyline id="pline_148" points="296,264,282,265,282,268,296,269" style="fill-opacity: 0; stroke: black" />
	<polyline id="pline_149" points="241,274,239,269,248,269,247,264,253,264,253,271,250,272,249,273,250,280" style="fill-opacity: 0; stroke: black" />
	<polyline id="pline_150" points="296,273,296,269,296,264" style="fill-opacity: 0; stroke: black" />
	<polyline id="pline_151" points="260,273,268,273,276,273,276,267,276,263,268,263,260,264,260,273" style="fill-opacity: 0; stroke: black" />
	<polyline id="pline_152" points="267,259,268,260" style="fill-opacity: 0; stroke: black" />
	<polyline id="pline_153" points="155,261,161,261,165,260,161,247,156,247,152,248,155,261" style="fill-opacity: 0; stroke: black" />
	<polyline id="pline_154" points="50,144,51,146" style="fill-opacity: 0; stroke: black" />
	<polyline id="pline_155" points="61,138,56,130,54,130,51,129,49,128,47,126" style="fill-opacity: 0; stroke: black" />
	<polyline id="pline_156" points="58,142,56,140,54,138,53,136" style="fill-opacity: 0; stroke: black" />
	<polyline id="pline_157" points="59,144,58,142" style="fill-opacity: 0; stroke: black" />
	<polyline id="pline_158" points="60,162,62,161,64,161,66,161,92,156,100,177,87,179,85,181,76,182" style="fill-opacity: 0; stroke: black" />
	<polyline id="pline_159" points="50,175,50,174,50,173,49,172,49,171,43,172,32,174,29,167" style="fill-opacity: 0; stroke: black" />
	<polyline id="pline_160" points="43,172,45,176" style="fill-opacity: 0; stroke: black" />
	<polyline id="pline_161" points="171,120,168,120,166,121" style="fill-opacity: 0; stroke: black" />
	<polyline id="pline_162" points="192,95,191,94,189,91,187,91,186,91,185,91,184,91" style="fill-opacity: 0; stroke: black" />
	<polyline id="pline_163" points="202,112,202,112,195,99,194,97,194,96,193,95,192,95,191,95,189,95,182,96,169,97,167,98,165,99,164,100,163,102,162,103,162,104,171,120,177,118,201,113,201,113,202,112" style="fill-opacity: 0; stroke: black" />
	<polyline id="pline_164" points="151,123,149,120,148,118,146,117,144,116,142,114,140,113,138,112,135,108,134,106,132,102,132,102,132,101,132,101,133,100,135,99,137,99,145,97,148,97,149,97,150,97,151,98,152,98,153,98,153,99,156,103,157,107,158,111,159,112,160,113,162,115,163,116,164,117,164,118,165,120,166,121" style="fill-opacity: 0; stroke: black" />
	<polyline id="pline_165" points="60,188,59,188" style="fill-opacity: 0; stroke: black" />
	<polyline id="pline_166" points="58,185,56,184,54,185,51,185,49,185,47,185,46,184,45,184,44,183,44,182,44,181,45,180,47,180,48,179,50,179,52,178,52,178,54,178,56,178,57,179,58,179,59,180,60,180,60,181,60,181,60,182,59,183,58,183,57,184,56,184" style="fill-opacity: 0; stroke: black" />
	<polyline id="pline_167" points="86,278,87,281" style="fill-opacity: 0; stroke: black" />
	<polyline id="pline_168" points="87,281,90,287" style="fill-opacity: 0; stroke: black" />
	<polyline id="pline_169" points="180,124,180,123" style="fill-opacity: 0; stroke: black" />
	<polyline id="pline_170" points="158,135,163,134" style="fill-opacity: 0; stroke: black" />
	<polyline id="pline_171" points="178,120,179,122,180,123" style="fill-opacity: 0; stroke: black" />
	<polyline id="pline_172" points="148,137,158,135" style="fill-opacity: 0; stroke: black" />
	<polyline id="pline_173" points="163,134,164,134" style="fill-opacity: 0; stroke: black" />
	<polyline id="pline_174" points="177,118,178,120" style="fill-opacity: 0; stroke: black" />
	<polyline id="pline_175" points="165,120,164,120" style="fill-opacity: 0; stroke: black" />
	<polyline id="pline_176" points="144,125,151,123,164,120" style="fill-opacity: 0; stroke: black" />
	<polyline id="pline_177" points="140,126,143,125,144,125" style="fill-opacity: 0; stroke: black" />
	<polyline id="pline_178" points="181,93,176,93,172,94,169,94,161,95,147,95,145,95,144,94,143,92,142,88,142,85,142,84,142,84,143,83,144,82,148,80,153,79,157,77,159,76,161,76,164,75,168,74,172,73,174,73,176,75,177,77,177,79,179,82,181,86,182,90,184,91,183,92,181,93" style="fill-opacity: 0; stroke: black" />
	<polyline id="pline_179" points="135,125,81,135,61,138,60,138,56,140" style="fill-opacity: 0; stroke: black" />
	<polyline id="pline_180" points="164,134,160,128,180,124,186,135,167,139,164,134" style="fill-opacity: 0; stroke: black" />
	<polyline id="pline_181" points="268,260,268,263" style="fill-opacity: 0; stroke: black" />
	<polyline id="pline_182" points="268,263,268,263,268,273" style="fill-opacity: 0; stroke: black" />
	<polyline id="pline_183" points="344,158,342,158,341,158,340,158,339,158,338,159,338,160,338,161,338,162,339,162,340,163,341,163,342,163" style="fill-opacity: 0; stroke: black" />
	<polyline id="pline_184" points="344,156,342,156,340,155,338,156,337,156,336,157,336,157,335,158,334,161,333,162" style="fill-opacity: 0; stroke: black" />
	<polyline id="pline_185" points="338,162,335,162,333,162,332,169" style="fill-opacity: 0; stroke: black" />
	<polyline id="pline_186" points="375,167,374,166,371,166,366,166,364,166,364,166,362,166,362,167" style="fill-opacity: 0; stroke: black" />
	<polyline id="pline_187" points="344,163,343,166" style="fill-opacity: 0; stroke: black" />
	<polyline id="pline_188" points="351,164,350,167" style="fill-opacity: 0; stroke: black" />
	<polyline id="pline_189" points="363,167,364,166" style="fill-opacity: 0; stroke: black" />
	<polyline id="pline_190" points="366,166,370,163,370,162,370,160,370,160,365,159,364,158,362,158,355,157,344,156,344,158,344,158,342,163,344,163,351,164,353,164,362,166" style="fill-opacity: 0; stroke: black" />
	<polyline id="pline_191" points="355,157,353,164" style="fill-opacity: 0; stroke: black" />
	<polyline id="pline_192" points="80,193,57,194" style="fill-opacity: 0; stroke: black" />
	<polyline id="pline_193" points="57,194,55,194" style="fill-opacity: 0; stroke: black" />
	<polyline id="pline_194" points="332,169,331,170" style="fill-opacity: 0; stroke: black" />
	<polyline id="pline_195" points="261,309,260,307,258,300" style="fill-opacity: 0; stroke: black" />
	<polyline id="pline_196" points="206,163,207,161" style="fill-opacity: 0; stroke: black" />
	<polyline id="pline_197" points="209,134,222,132" style="fill-opacity: 0; stroke: black" />
	<polyline id="pline_198" points="174,154,188,152,189,154,194,154" style="fill-opacity: 0; stroke: black" />
	<polyline id="pline_199" points="204,135,197,137,198,139,192,140,190,140,189,140,180,142,170,145,165,146,171,154,171,154" style="fill-opacity: 0; stroke: black" />
	<polyline id="pline_200" points="207,161,207,159" style="fill-opacity: 0; stroke: black" />
	<polyline id="pline_201" points="197,153,200,154,203,154,207,153" style="fill-opacity: 0; stroke: black" />
	<polyline id="pline_202" points="171,154,174,154" style="fill-opacity: 0; stroke: black" />
	<polyline id="pline_203" points="194,154,197,153" style="fill-opacity: 0; stroke: black" />
	<polyline id="pline_204" points="167,139,167,140" style="fill-opacity: 0; stroke: black" />
	<polyline id="pline_205" points="346,240,343,240,339,240,337,244,341,244,344,244,347,245,355,246,355,243,356,241,356,241,351,241,346,240,344,244" style="fill-opacity: 0; stroke: black" />
	<polyline id="pline_206" points="338,236,339,237" style="fill-opacity: 0; stroke: black" />
	<polyline id="pline_207" points="339,231,339,232,339,232" style="fill-opacity: 0; stroke: black" />
	<polyline id="pline_208" points="339,232,339,233,339,234,338,234,338,236" style="fill-opacity: 0; stroke: black" />
	<polyline id="pline_209" points="339,237,339,240" style="fill-opacity: 0; stroke: black" />
	<polyline id="pline_210" points="339,234,337,234,335,235,334,235,333,236,333,237" style="fill-opacity: 0; stroke: black" />
	<polyline id="pline_211" points="339,227,339,227,338,228,339,229,339,230,339,231,339,231" style="fill-opacity: 0; stroke: black" />
	<polyline id="pline_212" points="305,253,305,254" style="fill-opacity: 0; stroke: black" />
	<polyline id="pline_213" points="194,244,194,246" style="fill-opacity: 0; stroke: black" />
	<polyline id="pline_214" points="357,262,341,259,326,257,325,256" style="fill-opacity: 0; stroke: black" />
	<polyline id="pline_215" points="213,161,213,159,213,159,213,158,214,158,215,158,218,158,222,158,223,158,224,158,224,159,225,161" style="fill-opacity: 0; stroke: black" />
	<polyline id="pline_216" points="219,161,218,159" style="fill-opacity: 0; stroke: black" />
	<polyline id="pline_217" points="218,159,218,158" style="fill-opacity: 0; stroke: black" />
	<polyline id="pline_218" points="195,200,196,199" style="fill-opacity: 0; stroke: black" />
	<polyline id="pline_219" points="82,182,84,182" style="fill-opacity: 0; stroke: black" />
	<polyline id="pline_220" points="83,184,83,183" style="fill-opacity: 0; stroke: black" />
	<polyline id="pline_221" points="82,183,83,183" style="fill-opacity: 0; stroke: black" />
	<polyline id="pline_222" points="164,200,177,216" style="fill-opacity: 0; stroke: black" />
	<polyline id="pline_223" points="180,220,183,220,186,219,187,221,189,221,192,222,195,223,197,226,198,229,196,232,193,233,192,234,190,234,189,234,185,234,182,234,179,232,178,231,177,229,177,226,178,223,181,222,180,220" style="fill-opacity: 0; stroke: black" />
	<polyline id="pline_224" points="194,244,194,244,193,243,193,241,190,235,190,234,190,234" style="fill-opacity: 0; stroke: black" />
	<polyline id="pline_225" points="176,212,177,213" style="fill-opacity: 0; stroke: black" />
	<polyline id="pline_226" points="357,207,363,207,367,207" style="fill-opacity: 0; stroke: black" />
	<polyline id="pline_227" points="166,186,167,188,169,194" style="fill-opacity: 0; stroke: black" />
	<polyline id="pline_228" points="85,207,90,206" style="fill-opacity: 0; stroke: black" />
	<polyline id="pline_229" points="79,189,120,184,139,181" style="fill-opacity: 0; stroke: black" />
	<polyline id="pline_230" points="49,128,93,119,118,114,116,105,112,101,103,96,107,91" style="fill-opacity: 0; stroke: black" />
	<polyline id="pline_231" points="213,118,211,116,199,96,193,83,182,68,169,46,166,44" style="fill-opacity: 0; stroke: black" />
	<polyline id="pline_232" points="308,228,309,218" style="fill-opacity: 0; stroke: black" />
	<polyline id="pline_233" points="339,227,340,227,343,226,346,226,349,225,352,224,354,223,355,224,356,225,357,226,357,229,357,230,357,233,357,236,357,237,358,233,358,228,360,221,360,217,359,216,354,216,350,215,345,215,341,215,338,215,335,216,332,216,332,216,330,215,328,215,328,216,328,216,328,217,329,218,331,218,332,217,332,217,332,216,332,216" style="fill-opacity: 0; stroke: black" />
	<polyline id="pline_234" points="288,229,290,217" style="fill-opacity: 0; stroke: black" />
	<polyline id="pline_235" points="305,252,292,251,294,236,320,237,318,253,305,252" style="fill-opacity: 0; stroke: black" />
	<polyline id="pline_236" points="207,153,211,153" style="fill-opacity: 0; stroke: black" />
	<polyline id="pline_237" points="204,135,209,134" style="fill-opacity: 0; stroke: black" />
	<polyline id="pline_238" points="50,144,58,142" style="fill-opacity: 0; stroke: black" />
	<polyline id="pline_239" points="106,166,106,166,106,167,106,167,107,167,108,167,108,168,109,168,109,167,110,167,110,167,111,167,111,166,111,166,111,166,111,165,111,165,111,165,110,164,110,164,109,164,109,164,108,164,107,164,107,164,106,164,106,165,106,165,105,166,106,166" style="fill-opacity: 0; stroke: black" />
	<polyline id="pline_240" points="107,170,108,170,113,169,111,165,110,161,104,162,106,166,107,170" style="fill-opacity: 0; stroke: black" />
	<polyline id="pline_241" points="74,141,75,141,78,141,79,141,80,142,81,143,82,143,83,144,83,145,84,147,84,149,84,149,83,151,82,151,80,151,79,151,78,151,76,150,74,149,73,147,73,146,72,144,72,142,72,142,73,141,74,141" style="fill-opacity: 0; stroke: black" />
	<polyline id="pline_242" points="51,178,50,175" style="fill-opacity: 0; stroke: black" />
	<polyline id="pline_243" points="52,178,51,178" style="fill-opacity: 0; stroke: black" />
	<polyline id="pline_244" points="197,281,208,280" style="fill-opacity: 0; stroke: black" />
	<polyline id="pline_245" points="172,278,170,275" style="fill-opacity: 0; stroke: black" />
	<polyline id="pline_246" points="194,283,191,283" style="fill-opacity: 0; stroke: black" />
	<polyline id="pline_247" points="195,289,212,289" style="fill-opacity: 0; stroke: black" />
	<polyline id="pline_248" points="208,310,209,311,210,313,209,314,207,315,204,315,197,315,194,315,193,314,193,312,194,311,194,310,193,309,193,308,193,306,194,306,196,305,201,305,205,305,207,305,208,305,209,306,209,307,210,308,209,310,208,310" style="fill-opacity: 0; stroke: black" />
	<polyline id="pline_249" points="207,305,207,305" style="fill-opacity: 0; stroke: black" />
	<polyline id="pline_250" points="183,291,184,291,187,291,188,291" style="fill-opacity: 0; stroke: black" />
	<polyline id="pline_251" points="184,284,183,284,183,279,182,279" style="fill-opacity: 0; stroke: black" />
	<polyline id="pline_252" points="183,284,183,291,183,291,178,291,175,291,174,286,172,281,172,278,169,279" style="fill-opacity: 0; stroke: black" />
	<polyline id="pline_253" points="195,273,194,273,189,274" style="fill-opacity: 0; stroke: black" />
	<polyline id="pline_254" points="243,279,242,280,240,281,239,282,239,283,238,285,239,288,239,291,239,293,236,292,233,292,227,293" style="fill-opacity: 0; stroke: black" />
	<polyline id="pline_255" points="239,293,240,295" style="fill-opacity: 0; stroke: black" />
	<polyline id="pline_256" points="281,268,277,267" style="fill-opacity: 0; stroke: black" />
	<polyline id="pline_257" points="282,268,281,268" style="fill-opacity: 0; stroke: black" />
	<polyline id="pline_258" points="277,267,276,267" style="fill-opacity: 0; stroke: black" />
	<polyline id="pline_259" points="153,237,154,240,159,241" style="fill-opacity: 0; stroke: black" />
	<polyline id="pline_260" points="168,232,167,233,166,231,164,228,163,228,147,229,146,230,149,237,150,237,154,237,166,235,168,234,167,233" style="fill-opacity: 0; stroke: black" />
	<polyline id="pline_261" points="160,242,161,242" style="fill-opacity: 0; stroke: black" />
	<polyline id="pline_262" points="159,241,162,241" style="fill-opacity: 0; stroke: black" />
	<polyline id="pline_263" points="161,262,161,261" style="fill-opacity: 0; stroke: black" />
	<polyline id="pline_264" points="161,262,161,266" style="fill-opacity: 0; stroke: black" />
	<polyline id="pline_265" points="153,237,154,237" style="fill-opacity: 0; stroke: black" />
	<polyline id="pline_266" points="153,243,155,242,156,242,160,242" style="fill-opacity: 0; stroke: black" />
	<polyline id="pline_267" points="161,247,161,242,161,241,162,241,170,240" style="fill-opacity: 0; stroke: black" />
	<polyline id="pline_268" points="356,246,360,246" style="fill-opacity: 0; stroke: black" />
	<polyline id="pline_269" points="355,246,356,246" style="fill-opacity: 0; stroke: black" />
	<polyline id="pline_270" points="254,196,252,196" style="fill-opacity: 0; stroke: black" />
	<polyline id="pline_271" points="194,283,194,287,195,289,195,291,196,292,196,299,197,300,199,301,205,301,208,300" style="fill-opacity: 0; stroke: black" />
	<polyline id="pline_272" points="197,281,196,281" style="fill-opacity: 0; stroke: black" />
	<polyline id="pline_273" points="196,281,195,283" style="fill-opacity: 0; stroke: black" />
	<polyline id="pline_274" points="195,283,194,283" style="fill-opacity: 0; stroke: black" />
	<polyline id="pline_275" points="207,302,208,300,208,299,209,298,209,295,209,293,209,291,212,289,212,286,212,284,208,280,207,277,206,273,205,271,201,271,198,271,195,272,195,273,195,274,195,275,196,279,197,281" style="fill-opacity: 0; stroke: black" />
	<polyline id="pline_276" points="207,305,207,303,207,302" style="fill-opacity: 0; stroke: black" />
	<polyline id="pline_277" points="176,277,177,277" style="fill-opacity: 0; stroke: black" />
	<polyline id="pline_278" points="169,279,166,279" style="fill-opacity: 0; stroke: black" />
	<polyline id="pline_279" points="179,278,177,277,177,274" style="fill-opacity: 0; stroke: black" />
	<polyline id="pline_280" points="182,279,180,279,179,278" style="fill-opacity: 0; stroke: black" />
	<polyline id="pline_281" points="339,240,339,240" style="fill-opacity: 0; stroke: black" />
	<polyline id="pline_282" points="170,144,170,145" style="fill-opacity: 0; stroke: black" />
	<polyline id="pline_283" points="186,135,187,136" style="fill-opacity: 0; stroke: black" />
	<polyline id="pline_284" points="189,140,189,140" style="fill-opacity: 0; stroke: black" />
	<polyline id="pline_285" points="167,140,168,142,170,144" style="fill-opacity: 0; stroke: black" />
	<polyline id="pline_286" points="187,136,187,136,189,140" style="fill-opacity: 0; stroke: black" />
	<polyline id="pline_287" points="38,224,32,225,30,226,21,227,18,228" style="fill-opacity: 0; stroke: black" />
	<polyline id="pline_288" points="41,225,43,230,45,233,47,236,49,239,51,242" style="fill-opacity: 0; stroke: black" />
	<polyline id="pline_289" points="185,180,187,179" style="fill-opacity: 0; stroke: black" />
	<polyline id="pline_290" points="181,181,185,180" style="fill-opacity: 0; stroke: black" />
	<polyline id="pline_291" points="200,199,200,199" style="fill-opacity: 0; stroke: black" />
	<polyline id="pline_292" points="196,199,200,199,202,199" style="fill-opacity: 0; stroke: black" />
	<polyline id="pline_293" points="202,199,204,199,203,194,216,193,216,204,206,205,204,199" style="fill-opacity: 0; stroke: black" />
	<polyline id="pline_294" points="113,205,114,209" style="fill-opacity: 0; stroke: black" />
	<polyline id="pline_295" points="93,220,96,220" style="fill-opacity: 0; stroke: black" />
	<polyline id="pline_296" points="96,220,100,219" style="fill-opacity: 0; stroke: black" />
	<polyline id="pline_297" points="100,219,102,219,98,212,114,209,120,220,104,223,102,219" style="fill-opacity: 0; stroke: black" />
	<polyline id="pline_298" points="203,223,204,223" style="fill-opacity: 0; stroke: black" />
	<polyline id="pline_299" points="224,238,223,234" style="fill-opacity: 0; stroke: black" />
	<polyline id="pline_300" points="209,233,212,232" style="fill-opacity: 0; stroke: black" />
	<polyline id="pline_301" points="224,239,224,238" style="fill-opacity: 0; stroke: black" />
	<polyline id="pline_302" points="201,223,203,223" style="fill-opacity: 0; stroke: black" />
	<polyline id="pline_303" points="226,253,226,252" style="fill-opacity: 0; stroke: black" />
	<polyline id="pline_304" points="207,233,209,233" style="fill-opacity: 0; stroke: black" />
	<polyline id="pline_305" points="204,223,207,222" style="fill-opacity: 0; stroke: black" />
	<polyline id="pline_306" points="226,254,226,254" style="fill-opacity: 0; stroke: black" />
	<polyline id="pline_307" points="217,245,226,244,227,244" style="fill-opacity: 0; stroke: black" />
	<polyline id="pline_308" points="227,255,226,254,226,253" style="fill-opacity: 0; stroke: black" />
	<polyline id="pline_309" points="223,234,223,234,224,234,227,233,229,232,231,230,231,228,231,227,230,224,230,222,229,220,227,219,226,218,223,217,221,217,216,217,212,218,209,220,208,221,207,222,207,222,207,224,208,226,209,228,209,230,211,232,212,232,213,233,215,234,216,234,218,234,220,234,222,234,223,234" style="fill-opacity: 0; stroke: black" />
	<polyline id="pline_310" points="202,221,203,223,207,233,208,235" style="fill-opacity: 0; stroke: black" />
	<polyline id="pline_311" points="220,253,225,252,226,252,230,251,227,244,224,239,215,241,217,245,220,253" style="fill-opacity: 0; stroke: black" />
	<polyline id="pline_312" points="122,258,121,256,119,256,116,253" style="fill-opacity: 0; stroke: black" />
	<polyline id="pline_313" points="262,199,263,200,264,203,266,205,270,205,274,206,277,206,283,206,286,205,288,204,289,203,290,202" style="fill-opacity: 0; stroke: black" />
	<polyline id="pline_314" points="59,188,59,187,58,185" style="fill-opacity: 0; stroke: black" />
	<polyline id="pline_315" points="43,108,49,127,113,114,114,111,112,107,107,105,101,102,94,102,84,104,73,105,58,107,52,108,43,108" style="fill-opacity: 0; stroke: black" />
	<polyline id="pline_316" points="251,254,259,253" style="fill-opacity: 0; stroke: black" />
	<polyline id="pline_317" points="260,258,251,258" style="fill-opacity: 0; stroke: black" />
	<polyline id="pline_318" points="213,258,217,257,241,253,263,252,267,252" style="fill-opacity: 0; stroke: black" />
	<polyline id="pline_319" points="322,263,319,263,303,261,303,260,287,259,276,259,268,258,267,259,246,260,243,260,228,262,215,263,208,264,186,267,160,272" style="fill-opacity: 0; stroke: black" />
	<polyline id="pline_320" points="242,254,241,253" style="fill-opacity: 0; stroke: black" />
	<polyline id="pline_321" points="243,259,243,260" style="fill-opacity: 0; stroke: black" />
	<polyline id="pline_322" points="259,253,266,254" style="fill-opacity: 0; stroke: black" />
	<polyline id="pline_323" points="251,258,245,258" style="fill-opacity: 0; stroke: black" />
	<polyline id="pline_324" points="268,258,268,258" style="fill-opacity: 0; stroke: black" />
	<polyline id="pline_325" points="260,255,264,255" style="fill-opacity: 0; stroke: black" />
	<polyline id="pline_326" points="266,254,270,254,303,255,304,255,305,255,324,258" style="fill-opacity: 0; stroke: black" />
	<polyline id="pline_327" points="267,257,260,258" style="fill-opacity: 0; stroke: black" />
	<polyline id="pline_328" points="333,261,331,262,323,261" style="fill-opacity: 0; stroke: black" />
	<polyline id="pline_329" points="251,256,247,257" style="fill-opacity: 0; stroke: black" />
	<polyline id="pline_330" points="245,258,240,258,236,257" style="fill-opacity: 0; stroke: black" />
	<polyline id="pline_331" points="244,255,247,255" style="fill-opacity: 0; stroke: black" />
	<polyline id="pline_332" points="244,255,251,254" style="fill-opacity: 0; stroke: black" />
	<polyline id="pline_333" points="247,255,247,257" style="fill-opacity: 0; stroke: black" />
	<polyline id="pline_334" points="265,256,264,255" style="fill-opacity: 0; stroke: black" />
	<polyline id="pline_335" points="247,257,245,258" style="fill-opacity: 0; stroke: black" />
	<polyline id="pline_336" points="247,255,251,256" style="fill-opacity: 0; stroke: black" />
	<polyline id="pline_337" points="236,257,240,255,244,255" style="fill-opacity: 0; stroke: black" />
	<polyline id="pline_338" points="267,252,268,253" style="fill-opacity: 0; stroke: black" />
	<polyline id="pline_339" points="265,256,260,255" style="fill-opacity: 0; stroke: black" />
	<polyline id="pline_340" points="267,257,265,256" style="fill-opacity: 0; stroke: black" />
	<polyline id="pline_341" points="264,255,266,254" style="fill-opacity: 0; stroke: black" />
	<polyline id="pline_342" points="100,278,99,276,99,275" style="fill-opacity: 0; stroke: black" />
	<polyline id="pline_343" points="304,255,304,255" style="fill-opacity: 0; stroke: black" />
	<polyline id="pline_344" points="304,255,304,254" style="fill-opacity: 0; stroke: black" />
	<polyline id="pline_345" points="304,260,303,261" style="fill-opacity: 0; stroke: black" />
	<polyline id="pline_346" points="323,261,323,262" style="fill-opacity: 0; stroke: black" />
	<polyline id="pline_347" points="323,262,322,263,322,263" style="fill-opacity: 0; stroke: black" />
	<polyline id="pline_348" points="322,263,330,264" style="fill-opacity: 0; stroke: black" />
	<polyline id="pline_349" points="330,264,333,265,354,267,372,269" style="fill-opacity: 0; stroke: black" />
	<polyline id="pline_350" points="223,171,225,171" style="fill-opacity: 0; stroke: black" />
	<polyline id="pline_351" points="225,171,228,172" style="fill-opacity: 0; stroke: black" />
	<polyline id="pline_352" points="228,172,230,172" style="fill-opacity: 0; stroke: black" />
	<polyline id="pline_353" points="323,261,304,259,303,259,299,258,271,257,267,257" style="fill-opacity: 0; stroke: black" />
	<polyline id="pline_354" points="324,258,332,259,333,261" style="fill-opacity: 0; stroke: black" />
	<polyline id="pline_355" points="267,182,261,181,257,181,254,180,249,179,248,178,248,175,248,173,250,172,250,171,251,171" style="fill-opacity: 0; stroke: black" />
	<polyline id="pline_356" points="333,265,328,271" style="fill-opacity: 0; stroke: black" />
	<!-- 
	Generated using the Perl SVG Module V2.64
	by Ronan Oger
	Info: http://www.roitsystems.com/
 -->
</svg>