<?xml version="1.0" encoding="utf-8" ?>
<svg baseProfile="full" height="450px" version="1.1" width="450px" xmlns="http://www.w3.org/2000/svg" xmlns:ev="http://www.w3.org/2001/xml-events" xmlns:xlink="http://www.w3.org/1999/xlink"><defs /><g fill="none" id="roads" stroke="black" stroke-width="2"><polyline points="311,294 304,277 300,270 297,262 292,247" stroke="orange" /><polyline points="270,246 274,264 270,278" stroke="orange" /><polyline points="239,247 244,260 247,270 250,274 251,275 261,279" stroke="orange" /><polyline points="269,299 268,298 267,287" stroke="orange" /><polyline points="193,253 201,275 206,282" stroke="black" /><polyline points="206,282 207,281 209,280 231,278 249,276 251,275" stroke="orange" /><polyline points="185,288 178,267" stroke="green" /><polyline points="206,282 201,284 185,288 183,289 160,292 140,294" stroke="orange" /><polyline points="269,299 282,298 292,298 307,295 311,294 320,292" stroke="orange" /><polyline points="101,232 105,231 111,229" stroke="black" /><polyline points="185,208 211,204 228,202 251,200 253,199" stroke="black" /><polyline points="53,315 58,315 72,315 74,315 77,315 88,316 111,317 116,318 132,319 150,320 153,320" stroke="orange" /><polyline points="24,320 24,321 24,322 26,337 26,338 37,339 35,351" stroke="green" /><polyline points="56,346 56,340 56,329 55,328" stroke="black" /><polyline points="53,315 48,315 32,315 33,319 29,320 27,320 24,320" stroke="black" /><polyline points="28,257 56,252 58,252 59,253 63,261" stroke="black" /><polyline points="3,218 35,211 61,205 81,201" stroke="black" /><polyline points="252,146 256,151 260,155 264,160 268,164 268,165" stroke="black" /><polyline points="286,213 284,217 282,219 280,220 276,221 272,221 264,220 260,216 253,202 253,199 254,195 256,193 260,191 267,190 273,191 276,192 279,194" stroke="black" /><polyline points="260,216 261,224 266,243" stroke="black" /><polyline points="198,253 195,245" stroke="black" /><polyline points="81,201 83,201 85,201" stroke="black" /><polyline points="333,234 342,233" stroke="blue" /><polyline points="125,264 133,262 148,259 149,259 157,258 162,257 165,257 169,256 173,256 174,256 181,255 182,254 193,253 198,253 239,247 266,243 269,243 289,239 296,238 299,238 318,235" stroke="blue" /><polyline points="125,264 125,266 125,268 138,290 140,294 146,305 151,316 153,320 155,327 156,335" stroke="blue" /><polyline points="313,0 333,23 338,30 344,37 345,39 345,40 348,47 349,52 353,64 355,70 361,98 361,100 361,121 361,141 360,144" stroke="orange" /><polyline points="252,146 255,145 258,144 264,143 277,142 288,142 306,142 313,142 321,142 331,142 332,142 360,144" stroke="orange" /><polyline points="116,318 115,321" stroke="green" /><polyline points="114,327 114,327 115,328 115,333 116,334 135,336 156,335" stroke="orange" /><polyline points="302,376 304,374 308,372 315,371 314,347 313,341 312,332" stroke="green" /><polyline points="312,332 312,330 310,326 309,320 310,305 310,304 307,297 307,295" stroke="green" /><polyline points="-17,169 -1,167 18,167 27,166 57,159" stroke="green" /><polyline points="43,294 40,286 38,280" stroke="black" /><polyline points="328,273 304,277" stroke="orange" /><polyline points="386,233 385,237 385,238 382,267 379,268 381,280 381,284" stroke="black" /><polyline points="55,328 57,328 65,328 69,328" stroke="orange" /><polyline points="165,257 164,255" stroke="green" /><polyline points="174,256 173,254" stroke="green" /><polyline points="181,255 180,253" stroke="green" /><polyline points="157,258 157,257" stroke="green" /><polyline points="150,236 158,235" stroke="green" /><polyline points="144,227 147,226 155,225" stroke="green" /><polyline points="146,224 154,223" stroke="green" /><polyline points="111,249 115,248 134,245 133,243" stroke="green" /><polyline points="306,142 306,143 306,147 305,150 305,151 305,152" stroke="black" /><polyline points="327,177 328,177" stroke="black" /><polyline points="283,165 285,158 293,158 299,157 309,158 310,152 310,151" stroke="green" /><polyline points="181,209 185,208" stroke="black" /><polyline points="286,213 289,220 295,229 299,238" stroke="black" /><polyline points="268,165 271,170 277,186 277,189 279,194 280,197 286,213" stroke="black" /><polyline points="268,165 272,165 283,165 303,166 304,166 305,167 305,167 305,174 305,174 327,177" stroke="black" /><polyline points="140,173 162,168" stroke="black" /><polyline points="418,239 415,239" stroke="blue" /><polyline points="405,239 406,236 407,234 408,230 410,225 412,217 411,212 408,195 407,194 405,194 380,193 368,193 339,189 338,189 333,189 331,188 329,179" stroke="black" /><polyline points="158,233 163,233" stroke="green" /><polyline points="61,253 59,253" stroke="green" /><polyline points="155,225 162,224 169,223" stroke="green" /><polyline points="155,249 161,248" stroke="green" /><polyline points="162,248 170,247 171,247 177,246" stroke="green" /><polyline points="101,232 99,233 73,240 78,249 88,271 89,274" stroke="green" /><polyline points="78,249 61,253" stroke="green" /><polyline points="222,160 204,167 168,172 163,172" stroke="black" /><polyline points="222,160 232,157 234,156 245,150 252,146" stroke="black" /><polyline points="163,172 163,171 162,168" stroke="black" /><polyline points="43,190 36,178" stroke="green" /><polyline points="0,275 5,276 23,280 23,280 26,281 38,280" stroke="black" /><polyline points="475,249 456,246 437,242 418,239" stroke="blue" /><polyline points="292,247 290,242" stroke="green" /><polyline points="320,292 341,289 364,285 381,284 387,283 401,281 412,280 438,279 439,278 440,278" stroke="orange" /><polyline points="171,187 164,174 163,172" stroke="black" /><polyline points="267,287 267,286 268,284" stroke="orange" /><polyline points="268,284 266,281 261,279" stroke="orange" /><polyline points="270,278 266,281" stroke="green" /><polyline points="38,280 43,280 84,275 89,274 96,272 108,269 111,268 117,264 122,263 125,264" stroke="black" /><polyline points="195,245 194,234 189,224 184,214 181,209" stroke="black" /><polyline points="360,144 377,146 404,148 413,149 436,151 452,153 460,154" stroke="orange" /><polyline points="111,229 138,222 144,220 152,217 159,215 165,213 180,210 181,209" stroke="black" /><polyline points="327,177 337,178" stroke="black" /><polyline points="91,176 100,175 137,173 138,173" stroke="black" /><polyline points="97,223 95,224 81,226 74,228 62,231" stroke="green" /><polyline points="81,226 79,222" stroke="green" /><polyline points="138,290 125,292 120,293 101,296 98,296 97,293 96,291" stroke="black" /><polyline points="166,232 172,231" stroke="green" /><polyline points="164,231 162,224 160,217" stroke="green" /><polyline points="165,233 165,233 165,233 164,233 164,233 164,233 163,233 163,232 164,232 164,232 164,231 165,231 166,232 166,232 166,232 166,232 166,233 166,233 165,233" stroke="green" /><polyline points="337,306 339,306" stroke="green" /><polyline points="361,291 363,291" stroke="green" /><polyline points="362,296 362,297 363,299" stroke="green" /><polyline points="312,332 369,319 431,308 436,308 440,308 470,319" stroke="green" /><polyline points="364,285 364,283" stroke="black" /><polyline points="183,44 184,46 185,47 196,65 214,92 222,104 223,105 224,106 231,116 236,124 238,127 239,128 240,131 241,132 242,134 243,136 247,141 248,143 252,146" stroke="black" /><polyline points="85,201 88,201 93,200" stroke="black" /><polyline points="93,200 108,198 122,195 147,191 171,187" stroke="black" /><polyline points="321,159 309,158" stroke="green" /><polyline points="387,233 387,232 387,232" stroke="green" /><polyline points="380,195 380,193" stroke="green" /><polyline points="339,189 338,192" stroke="black" /><polyline points="115,321 115,323 114,327" stroke="black" /><polyline points="170,247 165,233" stroke="green" /><polyline points="367,317 366,314 366,314" stroke="green" /><polyline points="343,294 343,293" stroke="green" /><polyline points="363,299 364,301" stroke="green" /><polyline points="342,290 341,289" stroke="green" /><polyline points="322,309 326,308" stroke="green" /><polyline points="363,291 365,291" stroke="green" /><polyline points="343,293 342,290" stroke="green" /><polyline points="364,301 363,303" stroke="green" /><polyline points="34,269 28,257 22,248 18,241 3,218" stroke="black" /><polyline points="175,202 177,201" stroke="green" /><polyline points="164,335 162,335 156,335" stroke="green" /><polyline points="178,267 174,259" stroke="green" /><polyline points="174,259 173,256" stroke="green" /><polyline points="38,280 34,269" stroke="black" /><polyline points="181,209 181,209 177,201 176,198 171,187" stroke="black" /><polyline points="210,169 211,171" stroke="black" /><polyline points="245,155 246,157" stroke="black" /><polyline points="270,179 265,179" stroke="green" /><polyline points="258,187 259,190" stroke="green" /><polyline points="252,173 254,176" stroke="green" /><polyline points="246,157 249,165" stroke="green" /><polyline points="239,168 250,167 263,165 268,164" stroke="green" /><polyline points="295,236 296,238 297,241" stroke="green" /><polyline points="180,253 178,246 177,246 172,231 169,223 166,215" stroke="green" /><polyline points="121,268 125,268 128,267 129,267" stroke="green" /><polyline points="73,185 72,183 72,182" stroke="green" /><polyline points="79,176 81,178 82,179" stroke="green" /><polyline points="133,263 133,262 132,260" stroke="green" /><polyline points="350,236 350,233 350,231" stroke="green" /><polyline points="325,237 324,234 324,232" stroke="green" /><polyline points="268,298 265,299 264,299" stroke="green" /><polyline points="157,257 154,249" stroke="green" /><polyline points="154,249 155,249" stroke="green" /><polyline points="155,249 150,236 147,226 146,224 145,223" stroke="green" /><polyline points="162,248 158,235" stroke="green" /><polyline points="158,235 158,235" stroke="green" /><polyline points="164,255 161,248" stroke="green" /><polyline points="161,248 162,248" stroke="green" /><polyline points="158,235 158,233 155,225 155,225 154,223 153,219" stroke="green" /><polyline points="173,254 171,247" stroke="green" /><polyline points="133,243 131,239 147,237 150,236" stroke="green" /><polyline points="140,227 144,227" stroke="green" /><polyline points="166,215 165,213" stroke="green" /><polyline points="153,219 152,217" stroke="green" /><polyline points="160,217 159,215" stroke="green" /><polyline points="145,223 144,220" stroke="green" /><polyline points="138,222 140,227 141,231" stroke="black" /><polyline points="328,178 329,179" stroke="black" /><polyline points="328,177 328,178" stroke="black" /><polyline points="310,151 307,151" stroke="green" /><polyline points="307,151 305,151" stroke="green" /><polyline points="404,148 404,151" stroke="black" /><polyline points="349,230 369,231 386,232 387,232 396,233 405,234 407,234" stroke="green" /><polyline points="270,246 269,245" stroke="green" /><polyline points="216,168 212,165" stroke="green" /><polyline points="222,163 222,162" stroke="black" /><polyline points="437,266 439,261 440,257 427,255 420,254 416,263 424,264 437,266" stroke="green" /><polyline points="424,264 427,255" stroke="green" /><polyline points="349,237 350,238" stroke="green" /><polyline points="61,184 72,182 73,181 73,180 63,158 62,155 61,151 58,140 57,138 55,138 53,138 18,144 -11,147 -14,147 -18,147 -19,148" stroke="green" /><polyline points="76,145 84,155 88,174 87,175 79,176 78,177 76,176 69,161 69,157 68,155 66,142 66,140 66,138 68,137 69,136 71,137 73,141 76,145" stroke="green" /><polyline points="-6,201 -7,199 11,197 43,192 73,185 76,185" stroke="green" /><polyline points="173,265 175,270" stroke="green" /><polyline points="169,256 170,259" stroke="green" /><polyline points="170,259 173,265" stroke="green" /><polyline points="164,260 168,271" stroke="green" /><polyline points="162,257 164,260" stroke="green" /><polyline points="122,263 118,261 111,249 104,237 101,232 97,223 91,213 85,201 83,198 77,185 75,179" stroke="black" /><polyline points="339,306 343,305" stroke="green" /><polyline points="326,308 328,308" stroke="green" /><polyline points="351,321 366,318" stroke="green" /><polyline points="363,314 366,314" stroke="green" /><polyline points="368,317 368,317 367,318 366,318" stroke="green" /><polyline points="163,172 140,173" stroke="black" /><polyline points="140,173 138,173" stroke="black" /><polyline points="414,148 413,149" stroke="green" /><polyline points="57,159 61,159" stroke="green" /><polyline points="61,159 63,158 65,158 69,157" stroke="green" /><polyline points="152,269 150,262 149,259" stroke="green" /><polyline points="387,231 387,232" stroke="black" /><polyline points="277,222 277,224" stroke="black" /><polyline points="218,341 220,341 227,341" stroke="green" /><polyline points="439,240 423,237 408,235 407,234" stroke="green" /><polyline points="401,281 400,270 400,268 398,268 400,261 402,261 404,257" stroke="black" /><polyline points="165,161 167,161" stroke="green" /><polyline points="166,163 166,162" stroke="black" /><polyline points="165,162 166,162" stroke="black" /><polyline points="277,222 277,222 276,221 276,219 273,213 273,212 273,212" stroke="green" /><polyline points="156,335 158,351 158,353 159,357 160,361 162,376" stroke="blue" /><polyline points="259,190 260,191" stroke="green" /><polyline points="249,165 250,167 252,173" stroke="green" /><polyline points="162,168 203,163 222,160" stroke="black" /><polyline points="333,232 341,231" stroke="black" /><polyline points="342,236 333,236" stroke="black" /><polyline points="295,236 299,235 323,231 345,230 349,230" stroke="green" /><polyline points="404,241 401,241 385,239 385,238 369,237 358,237 350,236 349,237 328,238 325,238 310,240 297,241 290,242 269,245 243,250" stroke="green" /><polyline points="324,232 323,231" stroke="green" /><polyline points="325,237 325,238" stroke="green" /><polyline points="341,231 348,232" stroke="black" /><polyline points="333,236 327,236" stroke="black" /><polyline points="350,236 350,236" stroke="green" /><polyline points="342,233 346,233" stroke="blue" /><polyline points="348,232 352,232 385,233 386,233 387,233 406,236" stroke="blue" /><polyline points="349,235 342,236" stroke="black" /><polyline points="415,239 413,240 405,239" stroke="blue" /><polyline points="333,234 329,235" stroke="blue" /><polyline points="327,236 322,236 318,235" stroke="blue" /><polyline points="326,233 329,233" stroke="blue" /><polyline points="326,233 333,232" stroke="black" /><polyline points="329,233 329,235" stroke="blue" /><polyline points="347,234 346,233" stroke="blue" /><polyline points="329,235 327,236" stroke="blue" /><polyline points="329,233 333,234" stroke="blue" /><polyline points="318,235 322,233 326,233" stroke="blue" /><polyline points="349,230 350,231" stroke="green" /><polyline points="347,234 342,233" stroke="blue" /><polyline points="349,235 347,234" stroke="blue" /><polyline points="346,233 348,232" stroke="blue" /><polyline points="183,256 182,254 182,253" stroke="green" /><polyline points="386,233 386,233" stroke="green" /><polyline points="386,233 386,232" stroke="green" /><polyline points="386,238 385,239" stroke="green" /><polyline points="405,239 405,240" stroke="green" /><polyline points="405,240 404,241 404,241" stroke="green" /><polyline points="404,241 412,242" stroke="green" /><polyline points="412,242 415,243 436,245 454,247" stroke="green" /><polyline points="144,317 143,317 143,316 144,316 144,317" stroke="black" /><polyline points="144,316 144,317 144,317 144,317" stroke="black" /><polyline points="139,317 144,317" stroke="black" /><polyline points="147,317 146,317" stroke="black" /><polyline points="144,317 145,317 146,317 146,317" stroke="black" /><polyline points="144,317 144,317" stroke="black" /><polyline points="146,317 146,318 147,318" stroke="black" /><polyline points="143,317 142,318" stroke="black" /><polyline points="143,317 143,318" stroke="black" /><polyline points="143,317 143,318" stroke="black" /><polyline points="143,317 141,318" stroke="black" /><polyline points="111,317 112,311 120,309" stroke="black" /><polyline points="79,308 82,307" stroke="black" /><polyline points="75,310 75,306 78,306 79,308 79,310 77,311" stroke="black" /><polyline points="74,315 75,310" stroke="black" /><polyline points="77,311 77,315" stroke="black" /><polyline points="88,316 88,315" stroke="black" /><polyline points="98,296 98,297 98,298 99,300" stroke="black" /><polyline points="146,305 143,305 133,307 123,308" stroke="black" /><polyline points="119,284 100,287" stroke="black" /><polyline points="100,287 101,296" stroke="black" /><polyline points="48,305 51,305" stroke="black" /><polyline points="36,302 44,301" stroke="black" /><polyline points="44,301 46,300" stroke="black" /><polyline points="51,305 55,304" stroke="black" /><polyline points="52,329 56,329" stroke="black" /><polyline points="55,328 55,325 54,320 53,315 48,305 46,300 45,299 43,294" stroke="black" /><polyline points="88,312 88,310 93,310" stroke="black" /><polyline points="88,315 88,312" stroke="black" /><polyline points="87,185 87,185" stroke="black" /><polyline points="144,317 143,317 143,316 144,316 144,317" stroke="black" /><polyline points="143,317 143,316 144,316 144,317" stroke="black" /><polyline points="143,317 143,316 144,316 144,317" stroke="black" /><polyline points="405,239 386,237 385,237 381,236 353,235 349,235" stroke="blue" /><polyline points="406,236 414,237 415,239" stroke="blue" /><polyline points="349,161 343,160 339,160 336,159 331,158 330,157 330,154 330,152 332,151 332,150 333,150" stroke="black" /><polyline points="415,243 410,249" stroke="green" /></g></svg>